<?xml version="1.0" encoding="UTF-8"?>
<svg id="Layer_1" xmlns="http://www.w3.org/2000/svg" width="24" height="24" version="1.1" viewBox="0 0 24 24">
  <!-- Generator: Adobe Illustrator 29.8.2, SVG Export Plug-In . SVG Version: 2.1.1 Build 3)  -->
  <path d="M10.6,20h-1.1c-.6,0-1-.4-1-1s.4-1,1-1h.4l4-10.3c.2-.4.6-.7,1-.7s.9.3,1,.7l4,10.3h.4c.6,0,1,.4,1,1s-.4,1-1,1h-2.8c-.6,0-1-.4-1-1s.4-1,1-1h.2l-.8-2h-4.3l-.8,2h.2c.6,0,1,.4,1,1s-.4,1-1,1h-1.7ZM13.6,14h2.7l-1.4-3.5-1.4,3.5ZM3,17c-.1,0-.2,0-.4,0-.5-.2-.8-.8-.6-1.3l1.6-4s0,0,0,0l2.7-6.9c.2-.4.6-.7,1-.7.5,0,.9.3,1,.7l2.5,7c.1.3,0,.6-.1.9-.2.3-.5.4-.8.4h-4.8l-1.3,3.4c-.2.4-.5.6-.9.6ZM6,11h2.5l-1.2-3.4-1.3,3.4Z"/>
</svg>