<?xml version="1.0" encoding="UTF-8"?>
<svg id="Layer_1" xmlns="http://www.w3.org/2000/svg" width="24" height="24" version="1.1" viewBox="0 0 24 24">
  <!-- Generator: Adobe Illustrator 29.8.2, SVG Export Plug-In . SVG Version: 2.1.1 Build 3)  -->
  <path d="M13.5,21.9c-.3,0-.7-.2-.9-.4l-1.4-1.9c-.3-.4-.2-1.1.2-1.4.4-.3,1.1-.2,1.4.2l.7.9.7-.9c.3-.4,1-.5,1.4-.2.4.3.5,1,.2,1.4l-1.7,2.3h-.6ZM18.5,21h-.5c-.6,0-1-.4-1-1s.4-1,1-1v-2H6v2h3c.6,0,1,.4,1,1s-.4,1-1,1h-3.5c-.8,0-1.5-.7-1.5-1.5v-3c0-.8.7-1.5,1.5-1.5h13c.8,0,1.5.7,1.5,1.5v3c0,.8-.7,1.5-1.5,1.5ZM16,14h-1.5c-.6,0-1-.4-1-1s.4-1,1-1h0l-.4-1s0,0-.1,0h-4s0,0-.1,0l-.4,1h0c.6,0,1,.4,1,1s-.4,1-1,1h-1.5s0,0,0,0h-1c-.6,0-1-.4-1-1s.4-1,1-1h.3l3.7-9.1c.2-.4.6-.7,1-.7s.9.3,1,.7l3.7,9.1h.3c.6,0,1,.4,1,1s-.4,1-1,1h-1ZM10.7,9h2.6l-1.3-3.3-1.3,3.3Z"/>
</svg>