<?xml version="1.0" encoding="UTF-8"?>
<svg id="Layer_1" xmlns="http://www.w3.org/2000/svg" width="24" height="24" version="1.1" viewBox="0 0 24 24">
  <!-- Generator: Adobe Illustrator 29.8.2, SVG Export Plug-In . SVG Version: 2.1.1 Build 3)  -->
  <path d="M17.1,21c-1.6,0-2.9-1.3-2.9-3s1.6-3.9,2.1-4.7l.8-1.3.8,1.3c.5.8,2.1,3.4,2.1,4.7s-1.3,3-2.9,3ZM17.1,15.9c-.5,1-.9,1.8-.9,2.1,0,.5.4,1,.9,1s.9-.4.9-1c0-.3-.4-1.2-.9-2.1ZM6.1,17h-1.1c-.6,0-1-.4-1-1s.4-1,1-1h.4l1.3-3.3c0,0,0-.1,0-.2l2.7-6.8c.2-.4.6-.7,1-.7s.9.3,1,.7l2.7,6.9s0,0,0,0l.6,1.5c.2.5,0,1.1-.6,1.3-.5.2-1.1,0-1.3-.6l-.4-.9h-4.3l-.8,2h.2c.6,0,1,.4,1,1s-.4,1-1,1h-1.7ZM9.1,11h2.7l-1.4-3.5-1.4,3.5Z"/>
</svg>