<?xml version="1.0" encoding="UTF-8"?>
<svg id="Layer_1" xmlns="http://www.w3.org/2000/svg" width="24" height="24" version="1.1" viewBox="0 0 24 24">
  <!-- Generator: Adobe Illustrator 29.8.2, SVG Export Plug-In . SVG Version: 2.1.1 Build 3)  -->
  <path d="M19,13H5c-.6,0-1-.4-1-1s.4-1,1-1h14c.6,0,1,.4,1,1s-.4,1-1,1Z"/>
  <path d="M18,19H6c-.3,0-.5-.2-.5-.5s.2-.5.5-.5h12c.3,0,.5.2.5.5s-.2.5-.5.5ZM18,17H6c-.3,0-.5-.2-.5-.5s.2-.5.5-.5h12c.3,0,.5.2.5.5s-.2.5-.5.5ZM18,15H6c-.3,0-.5-.2-.5-.5s.2-.5.5-.5h12c.3,0,.5.2.5.5s-.2.5-.5.5ZM18,10H6c-.3,0-.5-.2-.5-.5s.2-.5.5-.5h12c.3,0,.5.2.5.5s-.2.5-.5.5ZM18,8H6c-.3,0-.5-.2-.5-.5s.2-.5.5-.5h12c.3,0,.5.2.5.5s-.2.5-.5.5ZM18,6H6c-.3,0-.5-.2-.5-.5s.2-.5.5-.5h12c.3,0,.5.2.5.5s-.2.5-.5.5Z"/>
</svg>