<?xml version="1.0" encoding="UTF-8"?>
<svg id="Layer_1" xmlns="http://www.w3.org/2000/svg" width="24" height="24" version="1.1" viewBox="0 0 24 24">
  <!-- Generator: Adobe Illustrator 29.8.2, SVG Export Plug-In . SVG Version: 2.1.1 Build 3)  -->
  <path d="M5,6c0-.6.4-1,1-1h12c.6,0,1,.4,1,1s-.4,1-1,1H6c-.6,0-1-.4-1-1ZM5,18c0-.6.4-1,1-1h12c.6,0,1,.4,1,1s-.4,1-1,1H6c-.6,0-1-.4-1-1ZM6.7,8.2c-.4-.4-1.1-.3-1.4.1-.2.2-.2.4-.2.7v6c0,.6.4,1,1,1,.2,0,.5,0,.7-.2l3.5-3c.4-.4.5-1,.1-1.4,0,0,0,0-.1-.1,0,0-3.5-3-3.5-3ZM12,10c0-.6.4-1,1-1h5c.6,0,1,.4,1,1s-.4,1-1,1h-5c-.6,0-1-.4-1-1ZM12,14c0-.6.4-1,1-1h5c.6,0,1,.4,1,1s-.4,1-1,1h-5c-.6,0-1-.4-1-1Z" fill-rule="evenodd"/>
</svg>