<?xml version="1.0" encoding="UTF-8"?>
<svg id="Layer_1" xmlns="http://www.w3.org/2000/svg" width="24" height="24" version="1.1" viewBox="0 0 24 24">
  <!-- Generator: Adobe Illustrator 29.8.2, SVG Export Plug-In . SVG Version: 2.1.1 Build 3)  -->
  <path d="M14.5,20H6c-.6,0-1-.4-1-1s.4-1,1-1h1V6h-1c-.6,0-1-.4-1-1s.4-1,1-1h6.5c2.5,0,4.5,2,4.5,4.5s-.4,2-1,2.8c1.7.6,3,2.3,3,4.2s-2,4.5-4.5,4.5ZM9,18h5.5c1.4,0,2.5-1.1,2.5-2.5s-1.1-2.5-2.5-2.5h-5.5v5ZM9,11h3.5c1.4,0,2.5-1.1,2.5-2.5s-1.1-2.5-2.5-2.5h-3.5v5Z"/>
</svg>