<?xml version="1.0" encoding="UTF-8"?>
<svg id="Layer_1" xmlns="http://www.w3.org/2000/svg" width="24" height="24" version="1.1" viewBox="0 0 24 24">
  <!-- Generator: Adobe Illustrator 29.8.2, SVG Export Plug-In . SVG Version: 2.1.1 Build 3)  -->
  <path d="M18,20H6c-.6,0-1-.4-1-1s.4-1,1-1h3c-1.2-.9-2-2.4-2-4V6h-1c-.6,0-1-.4-1-1s.4-1,1-1h4c.6,0,1,.4,1,1s-.4,1-1,1h-1v8c0,1.7,1.3,3,3,3s3-1.3,3-3V6h-1c-.6,0-1-.4-1-1s.4-1,1-1h4c.6,0,1,.4,1,1s-.4,1-1,1h-1v8c0,1.6-.8,3.1-2,4h3c.6,0,1,.4,1,1s-.4,1-1,1Z"/>
</svg>