<?xml version="1.0" encoding="UTF-8"?>
<svg id="Layer_1" xmlns="http://www.w3.org/2000/svg" width="24" height="24" version="1.1" viewBox="0 0 24 24">
  <!-- Generator: Adobe Illustrator 29.8.2, SVG Export Plug-In . SVG Version: 2.1.1 Build 3)  -->
  <path d="M19,17h-10c-.6,0-1-.4-1-1s.4-1,1-1h10c.6,0,1,.4,1,1s-.4,1-1,1ZM5,17c-.6,0-1-.4-1-1s.4-1,1-1h0c.6,0,1,.4,1,1s-.4,1-1,1ZM19,13h-10c-.6,0-1-.4-1-1s.4-1,1-1h10c.6,0,1,.4,1,1s-.4,1-1,1ZM5,13c-.6,0-1-.4-1-1s.4-1,1-1h0c.6,0,1,.4,1,1s-.4,1-1,1ZM19,9h-10c-.6,0-1-.4-1-1s.4-1,1-1h10c.6,0,1,.4,1,1s-.4,1-1,1ZM5,9c-.6,0-1-.4-1-1s.4-1,1-1h0c.6,0,1,.4,1,1s-.4,1-1,1Z"/>
</svg>