<?xml version="1.0" encoding="UTF-8"?>
<svg id="Layer_1" xmlns="http://www.w3.org/2000/svg" width="24" height="24" version="1.1" viewBox="0 0 24 24">
  <!-- Generator: Adobe Illustrator 29.8.2, SVG Export Plug-In . SVG Version: 2.1.1 Build 3)  -->
  <path d="M9,21h-5c-.4,0-.8-.3-.9-.7-.1-.4,0-.9.3-1.1l3.3-2.5c.2-.1.3-.4.3-.7,0-.6-.4-1-1-1h0c-.3,0-.5.1-.7.3-.2.2-.3.4-.3.7,0,.6-.4,1-1,1h0c-.6,0-1-.4-1-1,0-.8.3-1.6.9-2.1.6-.6,1.3-.9,2.1-.9h0c.8,0,1.6.3,2.1.9.6.6.9,1.3.9,2.1,0,.9-.4,1.7-1,2.3l-1,.7h2c.6,0,1,.4,1,1s-.4,1-1,1ZM20,19h-8c-.6,0-1-.4-1-1s.4-1,1-1h8c.6,0,1,.4,1,1s-.4,1-1,1ZM20,13h-8c-.6,0-1-.4-1-1s.4-1,1-1h8c.6,0,1,.4,1,1s-.4,1-1,1ZM8,11h-4c-.6,0-1-.4-1-1s.4-1,1-1h1v-3.4l-.6.3c-.5.2-1.1,0-1.3-.4-.2-.5,0-1.1.4-1.3l2-1c.3-.2.7-.1,1,0,.3.2.5.5.5.9v5h1c.6,0,1,.4,1,1s-.4,1-1,1ZM20,7h-8c-.6,0-1-.4-1-1s.4-1,1-1h8c.6,0,1,.4,1,1s-.4,1-1,1Z"/>
</svg>