<?xml version="1.0" encoding="UTF-8"?>
<svg id="Layer_1" xmlns="http://www.w3.org/2000/svg" width="24" height="24" version="1.1" viewBox="0 0 24 24">
  <!-- Generator: Adobe Illustrator 29.8.2, SVG Export Plug-In . SVG Version: 2.1.1 Build 3)  -->
  <path d="M6,6c-1.1,0-2,.9-2,2v3c0,1.1.9,2,2,2h3c0,1.7-1.3,3-3,3h-1c-.6,0-1,.4-1,1s.4,1,1,1h1c2.8,0,5-2.2,5-5v-5c0-1.1-.9-2-2-2h-3ZM15,6c-1.1,0-2,.9-2,2v3c0,1.1.9,2,2,2h3c0,1.7-1.3,3-3,3h-1c-.6,0-1,.4-1,1s.4,1,1,1h1c2.8,0,5-2.2,5-5v-5c0-1.1-.9-2-2-2h-3Z" fill-rule="evenodd"/>
</svg>