<?xml version="1.0" encoding="UTF-8"?>
<svg id="Layer_1" xmlns="http://www.w3.org/2000/svg" width="24" height="24" version="1.1" viewBox="0 0 24 24">
  <!-- Generator: Adobe Illustrator 29.8.2, SVG Export Plug-In . SVG Version: 2.1.1 Build 3)  -->
  <path d="M13.1,19.7c-.3,0-.6-.1-.8-.4l-3.8-4.7-3.8,4.7c-.3.4-1,.5-1.4.2-.4-.3-.5-1-.2-1.4l4.1-5.1L3.2,7.9c-.3-.4-.3-1.1.2-1.4.4-.3,1.1-.3,1.4.2l3.8,4.7,3.8-4.7c.3-.4,1-.5,1.4-.2.4.3.5,1,.2,1.4l-4.1,5.1,4.1,5.1c.3.4.3,1.1-.2,1.4-.2.1-.4.2-.6.2ZM20,11h-4c-.6,0-1-.4-1-1v-.5c0-.3.1-.5.3-.7.4-.4.9-.8,1.5-1.2.6-.4,1.7-1.3,1.9-1.7v-.9h-1.8c0,.6-.4,1-1,1s-1-.4-1-1c0-1.1.9-2,2-2h1.8c1.1,0,2,.9,2,2v1c0,1.1-1.1,2-2.5,3h1.7c.6,0,1,.4,1,1s-.4,1-1,1ZM16,9.5h0,0Z"/>
</svg>