<?xml version="1.0" encoding="UTF-8"?>
<svg id="Layer_1" xmlns="http://www.w3.org/2000/svg" width="24" height="24" version="1.1" viewBox="0 0 24 24">
  <!-- Generator: Adobe Illustrator 29.8.2, SVG Export Plug-In . SVG Version: 2.1.1 Build 3)  -->
  <path d="M18.5,20h-3c-.6,0-1-.4-1-1s.4-1,1-1h.5v-6h-2v.2c0,.6-.4,1-1,1s-1-.4-1-1v-1.2c0-.6.4-1,1-1h8c.6,0,1,.4,1,1v1.2c0,.6-.4,1-1,1s-1-.4-1-1v-.2h-2v6h.5c.6,0,1,.4,1,1s-.4,1-1,1ZM11,20h-6c-.6,0-1-.4-1-1s.4-1,1-1h2V6h-3v.2c0,.6-.4,1-1,1s-1-.4-1-1v-1.2c0-.6.4-1,1-1h11c.6,0,1,.4,1,1v1.2c0,.6-.4,1-1,1s-1-.4-1-1v-.2h-4v12h2c.6,0,1,.4,1,1s-.4,1-1,1Z"/>
</svg>