<?xml version="1.0" encoding="UTF-8"?>
<svg id="Layer_1" xmlns="http://www.w3.org/2000/svg" width="24" height="24" version="1.1" viewBox="0 0 24 24">
  <!-- Generator: Adobe Illustrator 29.8.2, SVG Export Plug-In . SVG Version: 2.1.1 Build 3)  -->
  <path d="M19,20H5c-.6,0-1-.4-1-1s.4-1,1-1h14c.6,0,1,.4,1,1s-.4,1-1,1ZM16.4,17h-1.7c-.6,0-1-.4-1-1s.4-1,1-1h.2l-.8-2h-4.3l-.8,2h.2c.6,0,1,.4,1,1s-.4,1-1,1h-1.6s0,0,0,0h-1.1c-.6,0-1-.4-1-1s.4-1,1-1h.4l1.3-3.3c0,0,0-.1,0-.2l2.7-6.8c.2-.4.6-.7,1-.7s.9.3,1,.7l2.7,6.9h0s1.3,3.4,1.3,3.4h.4c.6,0,1,.4,1,1s-.4,1-1,1h-1.1ZM10.6,11h2.7l-1.4-3.5-1.4,3.5ZM11.2,5.4s0,0,0,0h0ZM12.8,5.4h0s0,0,0,0Z"/>
</svg>