<?xml version="1.0" encoding="UTF-8"?>
<svg id="Layer_1" xmlns="http://www.w3.org/2000/svg" width="24" height="24" version="1.1" viewBox="0 0 24 24">
  <!-- Generator: Adobe Illustrator 29.8.2, SVG Export Plug-In . SVG Version: 2.1.1 Build 3)  -->
  <path d="M9.6,20h-2.6c-.6,0-1-.4-1-1s.4-1,1-1h1.8l.8-3.2c.1-.5.7-.9,1.2-.7s.9.7.7,1.2l-.7,2.8h2.1c.6,0,1,.4,1,1s-.4,1-1,1h-3.4ZM19,20c-.3,0-.5,0-.7-.3l-7.5-7.5s0,0,0,0l-6.5-6.5c-.4-.4-.4-1,0-1.4s1-.4,1.4,0l.4.4c.1-.4.5-.6.9-.6h6.2s0,0,0,0h5.8c.6,0,1,.4,1,1v1.2c0,.6-.4,1-1,1s-1-.4-1-1v-.2h-4l-1.3,5.2,7.1,7.1c.4.4.4,1,0,1.4s-.5.3-.7.3ZM7.9,6.5l3,3,.9-3.6h-3.9v.2c0,.1,0,.2,0,.3Z"/>
</svg>