<?xml version="1.0" encoding="UTF-8"?>
<svg id="Layer_1" xmlns="http://www.w3.org/2000/svg" width="24" height="24" version="1.1" viewBox="0 0 24 24">
  <!-- Generator: Adobe Illustrator 29.8.2, SVG Export Plug-In . SVG Version: 2.1.1 Build 3)  -->
  <path d="M9,4.5c.3,0,.6.2.7.5l.8,2.8c.4,1.2,1.3,2.2,2.6,2.6l2.8.8c.4.1.6.5.5.9,0,.2-.3.4-.5.5l-2.8.8c-1.2.4-2.2,1.3-2.6,2.6l-.8,2.8c-.1.4-.5.6-.9.5-.2,0-.4-.3-.5-.5l-.8-2.8c-.4-1.2-1.3-2.2-2.6-2.6l-2.8-.8c-.4-.1-.6-.5-.5-.9,0-.2.3-.4.5-.5l2.8-.8c1.2-.4,2.2-1.3,2.6-2.6l.8-2.8c0-.3.4-.5.7-.5ZM18,1.5c.3,0,.6.2.7.6l.3,1c.2.9,1,1.7,1.9,1.9l1,.3c.4,0,.6.5.5.9,0,.3-.3.5-.5.5l-1,.3c-.9.2-1.7,1-1.9,1.9l-.3,1c0,.4-.5.6-.9.5-.3,0-.5-.3-.5-.5l-.3-1c-.2-.9-1-1.7-1.9-1.9l-1-.3c-.4,0-.6-.5-.5-.9,0-.3.3-.5.5-.5l1-.3c.9-.2,1.7-1,1.9-1.9l.3-1c0-.3.4-.6.7-.6ZM16.5,15c.3,0,.6.2.7.5l.4,1.2c.1.4.5.8.9.9l1.2.4c.4.1.6.6.5.9,0,.2-.2.4-.5.5l-1.2.4c-.4.1-.8.5-.9.9l-.4,1.2c-.1.4-.6.6-.9.5-.2,0-.4-.2-.5-.5l-.4-1.2c-.1-.4-.5-.8-.9-.9l-1.2-.4c-.4-.1-.6-.6-.5-.9,0-.2.2-.4.5-.5l1.2-.4c.4-.1.8-.5.9-.9l.4-1.2c.1-.3.4-.5.7-.5Z" fill="#333" fill-rule="evenodd"/>
</svg>