<?xml version="1.0" encoding="UTF-8"?>
<svg id="Layer_1" xmlns="http://www.w3.org/2000/svg" width="24" height="24" version="1.1" viewBox="0 0 24 24">
  <!-- Generator: Adobe Illustrator 29.8.2, SVG Export Plug-In . SVG Version: 2.1.1 Build 3)  -->
  <path d="M12,2C6.5,2,2,6.5,2,12s4.5,10,10,10,10-4.5,10-10S17.5,2,12,2" fill="none" stroke="#000" stroke-linecap="round" stroke-linejoin="round" stroke-width="1"/>
  <path d="M13,12h-3M13,12c1.1,0,2-.9,2-2s-.9-2-2-2h-1M13,12c1.1,0,2,.9,2,2s-.9,2-2,2h-1M10,12v-4M10,12v4M9,8h1M9,16h1M10,8h2M10,16h2M12,8v-1.5M12,16v1.5" fill="none" stroke="#000" stroke-linecap="round" stroke-linejoin="round" stroke-width="1"/>
</svg>