<?xml version="1.0" encoding="UTF-8"?>
<svg id="Layer_1" xmlns="http://www.w3.org/2000/svg" width="24" height="24" version="1.1" viewBox="0 0 24 24">
  <!-- Generator: Adobe Illustrator 29.8.2, SVG Export Plug-In . SVG Version: 2.1.1 Build 3)  -->
  <path d="M12,6c-3.6,0-4.8,2.7-5,4,0,0,.8-1.6,2.9-1.6s2.7,3.6,7.2,3.6,4.8-2.5,4.9-3.7c0,0-.8,1.4-2.8,1.4s-2.8-3.7-7.2-3.7Z" fill="none" stroke="#000" stroke-linejoin="round" stroke-width="1"/>
  <path d="M7,12c-3.6,0-4.8,2.7-5,4,0,0,.8-1.6,2.9-1.6s2.7,3.6,7.2,3.6,4.8-2.5,4.9-3.7c0,0-.8,1.4-2.8,1.4s-2.8-3.7-7.2-3.7Z" fill="none" stroke="#000" stroke-linejoin="round" stroke-width="1"/>
</svg>