<?xml version="1.0" encoding="UTF-8"?>
<svg id="Layer_1" xmlns="http://www.w3.org/2000/svg" width="24" height="24" version="1.1" viewBox="0 0 24 24">
  <!-- Generator: Adobe Illustrator 29.8.2, SVG Export Plug-In . SVG Version: 2.1.1 Build 3)  -->
  <g>
    <g id="g138">
      <path id="path140" d="M22.5,12l-2.4,2.2,1.2-4.5,1.2,2.3Z" fill="none" stroke="#000" stroke-miterlimit="10"/>
    </g>
    <g id="g142">
      <path id="path144" d="M21.7,12l-2.4,2.2,1.2-4.5,1.2,2.3Z" fill="none" stroke="#000" stroke-miterlimit="10"/>
    </g>
  </g>
  <path d="M3.5,9.2l-1.3,4.6c0,.2,0,.4.3.4h4.9c.2,0,.3-.1.3-.2l1.4-4.8" fill="none" stroke="#000" stroke-miterlimit="10"/>
  <path d="M9.4,14.8l1.4-5.1h5.2c.2,0,.4.2.3.4l-.4,1.6c0,.2-.2.3-.3.3h-5.4" fill="none" stroke="#000" stroke-miterlimit="10"/>
  <line x1="18.6" y1="9.2" x2="17.1" y2="14.8" fill="none" stroke="#000" stroke-miterlimit="10"/>
</svg>