<?xml version="1.0" encoding="UTF-8"?>
<svg id="Layer_1" xmlns="http://www.w3.org/2000/svg" width="24" height="24" version="1.1" viewBox="0 0 24 24">
  <!-- Generator: Adobe Illustrator 29.8.2, SVG Export Plug-In . SVG Version: 2.1.1 Build 3)  -->
  <path d="M12,21c5,0,9-4,9-9S17,3,12,3h0C7,3,3,7,3,12s4,9,9,9Z" fill="none" stroke="#000" stroke-linecap="round" stroke-linejoin="round" stroke-width="2"/>
  <path d="M17,13c0,2-2.2,4.5-5,4.5s-5-2.5-5-4.5c0,1.4,10,1.4,10,0Z" fill="none" stroke="#000" stroke-linecap="round" stroke-linejoin="round" stroke-width="2"/>
  <path d="M9,6.8l.6,1.3,1.4.2-1,1,.2,1.4-1.2-.7-1.2.6.2-1.4-1-1,1.4-.2.6-1.3ZM15,6.8l.6,1.3,1.4.2-1,1,.2,1.4-1.2-.7-1.2.6.2-1.4-1-1,1.4-.2.6-1.3Z" fill="none" stroke="#000" stroke-linecap="round" stroke-linejoin="round"/>
</svg>