<?xml version="1.0" encoding="UTF-8"?>
<svg id="Layer_1" xmlns="http://www.w3.org/2000/svg" width="24" height="24" version="1.1" viewBox="0 0 24 24">
  <!-- Generator: Adobe Illustrator 29.8.2, SVG Export Plug-In . SVG Version: 2.1.1 Build 3)  -->
  <path d="M21,12c0,5-4,9-9,9S3,17,3,12,7,3,12,3s9,4,9,9ZM7,13c0,1,.5,2.4,1.5,3.2,2,1.7,5,1.7,7,0,1-.8,1.5-2.2,1.5-3.2,0,0-2,1-5,1s-5-1-5-1ZM9.2,9c0,0,0,.2-.2.2s-.2,0-.2-.2,0-.2.2-.2.2,0,.2.2ZM15.2,9c0,0,0,.2-.2.2s-.2,0-.2-.2,0-.2.2-.2.2,0,.2.2Z" fill="none" stroke="#000" stroke-linecap="round" stroke-linejoin="round" stroke-width="2"/>
</svg>