<?xml version="1.0" encoding="UTF-8"?>
<svg id="Layer_1" xmlns="http://www.w3.org/2000/svg" width="24" height="24" version="1.1" viewBox="0 0 24 24">
  <!-- Generator: Adobe Illustrator 29.8.2, SVG Export Plug-In . SVG Version: 2.1.1 Build 3)  -->
  <path d="M21,12c0,5-4,9-9,9S3,17,3,12,7,3,12,3s9,4,9,9ZM6.6,13c.6,3,3.4,4.9,6.4,4.4,2.2-.4,4-2.2,4.4-4.4H6.6ZM9.3,9c0,.2-.1.3-.3.3s-.3-.1-.3-.3.1-.3.3-.3.3.1.3.3ZM15.3,9c0,.2-.1.3-.3.3s-.3-.1-.3-.3.1-.3.3-.3.3.1.3.3Z" fill="none" stroke="#000" stroke-linecap="round" stroke-linejoin="round" stroke-width="2"/>
</svg>