<?xml version="1.0" encoding="UTF-8"?>
<svg id="Layer_1" xmlns="http://www.w3.org/2000/svg" width="24" height="24" version="1.1" viewBox="0 0 24 24">
  <!-- Generator: Adobe Illustrator 29.8.2, SVG Export Plug-In . SVG Version: 2.1.1 Build 3)  -->
  <path d="M12,17c1.1,0,2,.9,2,2h-4c0-1.1.9-2,2-2Z" fill="none" stroke="#000" stroke-miterlimit="10"/>
  <path d="M13.8,9h2.7c1.1,0,2-.9,2-2s-.9-2-2-2c-.4,0-.7,0-1.1.3,0,0,0-.2,0-.3,0-1.1-.9-2-2-2-.6,0-1.1.2-1.5.7-.7-.8-2-.9-2.8-.2-.4.4-.7.9-.7,1.5,0,0,0,.2,0,.3-.9-.6-2.2-.3-2.7.7-.6.9-.3,2.2.7,2.7.3.2.7.3,1.1.3h3.4M13.8,8v3.6M10.2,9v2.6M21,11.6c-.2.8-.9,1.3-1.7,1.3-.8,0-1.6-.5-1.8-1.3-.3,1-1.4,1.6-2.4,1.2-.6-.2-1-.6-1.2-1.2-.2.8-.9,1.3-1.7,1.3-.8,0-1.6-.5-1.9-1.3-.2.8-.9,1.3-1.7,1.3-.8,0-1.6-.5-1.9-1.3-.3.8-1,1.3-1.8,1.3-.8,0-1.5-.5-1.7-1.3v.4c0,5,4,9,9,9s9-4,9-9c0,0,0-.4,0-.4ZM15.3,16c0,.2-.1.3-.3.3s-.3-.1-.3-.3.1-.3.3-.3.3.1.3.3ZM9.1,16c0,.2-.1.3-.3.3s-.3-.1-.3-.3.1-.3.3-.3.3.1.3.3Z" fill="none" stroke="#000" stroke-linecap="round" stroke-linejoin="round" stroke-width="2"/>
</svg>