<?xml version="1.0" encoding="UTF-8"?>
<svg id="Layer_1" xmlns="http://www.w3.org/2000/svg" width="24" height="24" version="1.1" viewBox="0 0 24 24">
  <!-- Generator: Adobe Illustrator 29.8.2, SVG Export Plug-In . SVG Version: 2.1.1 Build 3)  -->
  <path d="M12,2.2c-3.7,0-6.8,3-6.8,6.8v.8c0,2-.8,4-2.1,5.5-.3.3-.3.8,0,1.1,0,0,.2.1.2.1,1.5.6,3.2,1,4.8,1.2-.2,2.1,1.4,3.9,3.5,4s3.9-1.4,4-3.5c0-.2,0-.4,0-.5,1.6-.2,3.3-.7,4.8-1.2.4-.1.6-.6.4-1,0,0,0-.2-.1-.2-1.4-1.5-2.1-3.5-2.1-5.5v-.8c0-3.7-3-6.8-6.8-6.8ZM9.8,18s0,0,0-.1c1.5.1,3,.1,4.5,0h0c0,1.3-1,2.4-2.2,2.4s-2.2-1-2.2-2.2ZM10.5,7.5c-.4,0-.8.3-.8.8s.3.8.8.8h1.6l-2.2,3.3c-.2.3-.1.8.2,1,.1,0,.3.1.4.1h3c.4,0,.8-.3.8-.8s-.3-.8-.8-.8h-1.6l2.2-3.3c.2-.3.1-.8-.2-1-.1,0-.3-.1-.4-.1h-3Z" fill="#333" fill-rule="evenodd"/>
</svg>