<?xml version="1.0" encoding="UTF-8"?>
<svg id="Layer_1" xmlns="http://www.w3.org/2000/svg" width="24" height="24" version="1.1" viewBox="0 0 24 24">
  <!-- Generator: Adobe Illustrator 29.8.2, SVG Export Plug-In . SVG Version: 2.1.1 Build 3)  -->
  <path d="M17.1,12.6v-1.8c0-2.5-1.7-4.7-4.2-5.3,0,0,0,0,0-.1v-2.4c0-.6-.4-1-1-1s-1,.4-1,1v2.4s0,0,0,.1c-2.4.6-4.2,2.8-4.2,5.3v1.8c0,2.4-1.9,3-1.9,4.2s0,1.2.5,1.2h12.9c.5,0,.5-.6.5-1.2,0-1.2-1.9-1.8-1.9-4.2ZM3.9,11.8c-.6,0-1-.4-1-1,0-2.4.9-4.7,2.5-6.4.4-.4,1-.4,1.4,0s.4,1,0,1.4c-1.3,1.4-2,3.2-2,5,0,.6-.4,1-1,1ZM20.1,11.8c-.6,0-1-.4-1-1,0-1.9-.7-3.7-2-5-.4-.4-.3-1,0-1.4.4-.3,1-.3,1.4,0,1.6,1.7,2.5,4,2.5,6.4,0,.6-.4,1-1,1ZM8.8,19c.7,1.8,2.8,2.6,4.5,1.8.8-.3,1.5-1,1.8-1.8h-6.4Z" fill="#333"/>
</svg>