<?xml version="1.0" encoding="UTF-8"?>
<svg id="Layer_1" xmlns="http://www.w3.org/2000/svg" width="24" height="24" version="1.1" viewBox="0 0 24 24">
  <!-- Generator: Adobe Illustrator 29.8.2, SVG Export Plug-In . SVG Version: 2.1.1 Build 3)  -->
  <path d="M11.2,3.8c-.1-.5-.6-.9-1.2-.8s-.9.6-.8,1.2l.3,1.7c-2.1,1.1-3.3,3.4-2.8,5.8l.3,1.5v.3c.3,1.4-.2,2.3-.6,3-.3.5-.5,1-.4,1.4.1.6.2,1.2.8,1.1l12.7-2.4c.5-.1.4-.7.3-1.3-.1-.6-.6-1.1-1.2-1.7-.6-.6-1.2-1.3-1.4-2.1-.2-1.1-.3-1.4-.3-1.6,0,0,0-.1,0-.2-.5-2.6-2.7-4.4-5.4-4.4,0,0-.3-1.6-.3-1.6Z" fill="#333"/>
  <path d="M6.5,4.3c.4.4.4,1,0,1.4-1.1,1.2-1.7,2.6-1.8,4.3,0,.6-.5,1-1.1.9-.6,0-1-.5-.9-1.1.2-2.1.9-3.9,2.3-5.5.4-.4,1-.4,1.4,0,0,0,0,0,0,0Z" fill="#333" fill-rule="evenodd"/>
  <path d="M8.9,19.7c.7.8,1.7,1.3,2.8,1.3,1.6,0,2.9-1.1,3.3-2.5,0,0-6.1,1.2-6.1,1.2Z" fill="#333"/>
</svg>