<?xml version="1.0" encoding="UTF-8"?>
<svg id="Layer_1" xmlns="http://www.w3.org/2000/svg" width="24" height="24" version="1.1" viewBox="0 0 24 24">
  <!-- Generator: Adobe Illustrator 29.8.2, SVG Export Plug-In . SVG Version: 2.1.1 Build 3)  -->
  <path d="M18.5,3.1c.3.2.5.5.5.9v16c0,.6-.4,1-1,1-.2,0-.4,0-.6-.2l-5.4-3.9V7.1l5.4-3.9c.3-.2.7-.2,1,0ZM22,12c0,1.5-.8,2.8-2,3.5v-6.9c1.2.7,2,2,2,3.5ZM10,8h-6c-.6,0-1,.4-1,1v6c0,.6.4,1,1,1h6v-8ZM10,17h-5v3c0,.6.4,1,1,1h3c.6,0,1-.4,1-1v-3Z" fill="#333" fill-rule="evenodd"/>
</svg>