<?xml version="1.0" encoding="UTF-8"?>
<svg id="Layer_1" xmlns="http://www.w3.org/2000/svg" width="24" height="24" version="1.1" viewBox="0 0 24 24">
  <!-- Generator: Adobe Illustrator 29.8.2, SVG Export Plug-In . SVG Version: 2.1.1 Build 3)  -->
  <path d="M20,1H4c-1.1,0-2,.9-2,2v18c0,1.1.9,2,2,2h16c1.1,0,2-.9,2-2V3c0-1.1-.9-2-2-2ZM5.5,5c0-.6.4-1,1-1h11c.6,0,1,.4,1,1v4.5c0,.6-.4,1-1,1H6.5c-.6,0-1-.4-1-1v-4.5ZM10.2,16.8c.4.4.4,1,0,1.4s-.5.3-.7.3-.5,0-.7-.3l-1-1-1,1c-.2.2-.5.3-.7.3s-.5,0-.7-.3c-.4-.4-.4-1,0-1.4l1-1-1-1c-.4-.4-.4-1,0-1.4s1-.4,1.4,0l1,1,1-1c.4-.4,1-.4,1.4,0s.4,1,0,1.4l-1,1,1,1ZM18,18.5h-4c-.6,0-1-.4-1-1s.4-1,1-1h4c.6,0,1,.4,1,1s-.4,1-1,1ZM18,15.5h-4c-.6,0-1-.4-1-1s.4-1,1-1h4c.6,0,1,.4,1,1s-.4,1-1,1Z" fill="#333"/>
</svg>