<?xml version="1.0" encoding="UTF-8"?>
<svg id="Layer_1" xmlns="http://www.w3.org/2000/svg" width="24" height="24" version="1.1" viewBox="0 0 24 24">
  <!-- Generator: Adobe Illustrator 29.8.2, SVG Export Plug-In . SVG Version: 2.1.1 Build 3)  -->
  <path d="M3,6c0-1.7,1.3-3,3-3s3,1.3,3,3c0,1.3-.8,2.4-2,2.8v6.3c1.6.6,2.4,2.3,1.8,3.8-.6,1.6-2.3,2.4-3.8,1.8-1.6-.6-2.4-2.3-1.8-3.8.3-.9,1-1.5,1.8-1.8v-6.3c-1.2-.4-2-1.6-2-2.8ZM14.2,3.3c.4.4.4,1,0,1.4l-.3.3h1.1c2.2,0,4,1.8,4,4v6.2c1.6.6,2.4,2.3,1.8,3.8-.6,1.6-2.3,2.4-3.8,1.8s-2.4-2.3-1.8-3.8c.3-.9,1-1.5,1.8-1.8v-6.2c0-1.1-.9-2-2-2h-1.1l.3.3c.4.4.4,1,0,1.4-.4.4-1,.4-1.4,0l-2-2c-.4-.4-.4-1,0-1.4l2-2c.4-.4,1-.4,1.4,0Z" fill="#333" fill-rule="evenodd"/>
</svg>