<?xml version="1.0" encoding="UTF-8"?>
<svg id="Layer_1" xmlns="http://www.w3.org/2000/svg" width="24" height="24" version="1.1" viewBox="0 0 24 24">
  <!-- Generator: Adobe Illustrator 29.8.2, SVG Export Plug-In . SVG Version: 2.1.1 Build 3)  -->
  <path d="M8,3c-1.7,0-3,1.3-3,3,0,1.3.8,2.4,2,2.8v6.3c-1.6.6-2.4,2.3-1.8,3.8.6,1.6,2.3,2.4,3.8,1.8s2.4-2.3,1.8-3.8c-.3-.9-1-1.5-1.8-1.8v-.2c0-1.1.9-2,2-2h1c2.4,0,4.5-1.8,4.9-4.1,1.6-.5,2.4-2.2,1.9-3.8-.4-1.2-1.6-2.1-2.8-2.1-1.7,0-3,1.3-3,3,0,1.2.8,2.3,1.9,2.8-.4,1.3-1.5,2.2-2.9,2.2h-1c-.7,0-1.4.2-2,.5v-2.7c1.6-.6,2.4-2.3,1.8-3.8-.4-1.2-1.6-2-2.8-2Z" fill="#333"/>
</svg>