<?xml version="1.0" encoding="UTF-8"?>
<svg id="Layer_1" xmlns="http://www.w3.org/2000/svg" width="24" height="24" version="1.1" viewBox="0 0 24 24">
  <!-- Generator: Adobe Illustrator 29.8.2, SVG Export Plug-In . SVG Version: 2.1.1 Build 3)  -->
  <path d="M5,6c0-1.7,1.3-3,3-3,1.7,0,3,1.3,3,3,0,1.3-.8,2.4-2,2.8v.2c0,2.2,1.8,4,4,4h.2c.6-1.6,2.3-2.4,3.8-1.8,1.6.6,2.4,2.3,1.8,3.8s-2.3,2.4-3.8,1.8c-.9-.3-1.5-1-1.8-1.8h-.2c-1.5,0-2.9-.5-4-1.5v1.7c1.6.6,2.4,2.3,1.8,3.8-.6,1.6-2.3,2.4-3.8,1.8-1.6-.6-2.4-2.3-1.8-3.8.3-.9,1-1.5,1.8-1.8v-6.3c-1.2-.4-2-1.6-2-2.8Z" fill="#333" fill-rule="evenodd"/>
</svg>