<?xml version="1.0" encoding="UTF-8"?>
<svg id="Layer_1" xmlns="http://www.w3.org/2000/svg" width="24" height="24" version="1.1" viewBox="0 0 24 24">
  <!-- Generator: Adobe Illustrator 29.8.2, SVG Export Plug-In . SVG Version: 2.1.1 Build 3)  -->
  <path d="M16.5,7.5H7.5v9h9V7.5Z" fill="#333"/>
  <path d="M8.2,2.2c.4,0,.8.3.8.8v.8h2.2v-.8c0-.4.3-.8.8-.8s.8.3.8.8v.8h2.2v-.8c0-.4.3-.8.8-.8s.8.3.8.8v.8h.8c1.7,0,3,1.3,3,3v.8h.8c.4,0,.8.3.8.8s-.3.8-.8.8h-.8v2.2h.8c.4,0,.8.3.8.8s-.3.8-.8.8h-.8v2.2h.8c.4,0,.8.3.8.8s-.3.8-.8.8h-.8v.8c0,1.7-1.3,3-3,3h-.8v.8c0,.4-.3.8-.8.8s-.8-.3-.8-.8v-.8h-2.2v.8c0,.4-.3.8-.8.8s-.8-.3-.8-.8v-.8h-2.2v.8c0,.4-.3.8-.8.8s-.8-.3-.8-.8v-.8h-.8c-1.7,0-3-1.3-3-3v-.8h-.8c-.4,0-.8-.3-.8-.8s.3-.8.8-.8h.8v-2.2h-.8c-.4,0-.8-.3-.8-.8s.3-.8.8-.8h.8v-2.2h-.8c-.4,0-.8-.3-.8-.8s.3-.8.8-.8h.8v-.8c0-1.7,1.3-3,3-3h.8v-.8c0-.4.3-.8.8-.8ZM6,6.8c0-.4.3-.8.8-.8h10.5c.4,0,.8.3.8.8v10.5c0,.4-.3.8-.8.8H6.8c-.4,0-.8-.3-.8-.8V6.8Z" fill="#333" fill-rule="evenodd"/>
</svg>