<?xml version="1.0" encoding="UTF-8"?>
<svg id="Layer_1" xmlns="http://www.w3.org/2000/svg" width="24" height="24" version="1.1" viewBox="0 0 24 24">
  <!-- Generator: Adobe Illustrator 29.8.2, SVG Export Plug-In . SVG Version: 2.1.1 Build 3)  -->
  <path d="M12,1C5.9,1,1,5.9,1,12s4.9,11,11,11,11-4.9,11-11S18.1,1,12,1ZM12,7c.7,0,1.2.6,1.2,1.2s-.6,1.2-1.2,1.2-1.2-.6-1.2-1.2.6-1.2,1.2-1.2ZM12,11c.7,0,1.2.6,1.2,1.2s-.6,1.2-1.2,1.2-1.2-.6-1.2-1.2.6-1.2,1.2-1.2ZM7.5,7c.7,0,1.2.6,1.2,1.2s-.6,1.2-1.2,1.2-1.2-.6-1.2-1.2.6-1.2,1.2-1.2ZM6.2,12.2c0-.7.6-1.2,1.2-1.2s1.2.6,1.2,1.2-.6,1.2-1.2,1.2-1.2-.6-1.2-1.2ZM15.5,17.5h-7c-.6,0-1-.4-1-1s.4-1,1-1h7c.6,0,1,.4,1,1s-.4,1-1,1ZM16.5,13.5c-.7,0-1.2-.6-1.2-1.2s.6-1.2,1.2-1.2,1.2.6,1.2,1.2-.6,1.2-1.2,1.2ZM16.5,9.5c-.7,0-1.2-.6-1.2-1.2s.6-1.2,1.2-1.2,1.2.6,1.2,1.2-.6,1.2-1.2,1.2Z" fill="#333"/>
</svg>