<?xml version="1.0" encoding="UTF-8"?>
<svg id="Layer_1" xmlns="http://www.w3.org/2000/svg" width="24" height="24" version="1.1" viewBox="0 0 24 24">
  <!-- Generator: Adobe Illustrator 29.8.2, SVG Export Plug-In . SVG Version: 2.1.1 Build 3)  -->
  <path d="M7.1,4.1c2.7-2.7,7.2-2.7,9.9,0,1.3,1.3,2.1,3.1,2.1,5,0,2.4-1.2,3.9-2.2,5.1h0c-1,1.3-1.8,2.3-1.8,3.9s-.4,1-1,1h-4c-.6,0-1-.4-1-1,0-1.6-.8-2.6-1.8-3.9h0c-1-1.3-2.2-2.8-2.2-5.1,0-1.9.7-3.6,2.1-4.9ZM9,21c0-.6.4-1,1-1h4c.6,0,1,.4,1,1s-.4,1-1,1h-4c-.6,0-1-.4-1-1ZM10.6,7.6c.4-.4.9-.6,1.4-.6.6,0,1-.4,1-1s-.4-1-1-1c-2.2,0-4,1.8-4,4s.4,1,1,1,1-.4,1-1c0-.5.2-1,.6-1.4Z" fill="#333" fill-rule="evenodd"/>
</svg>