<?xml version="1.0" encoding="UTF-8"?>
<svg id="Layer_1" xmlns="http://www.w3.org/2000/svg" width="24" height="24" version="1.1" viewBox="0 0 24 24">
  <!-- Generator: Adobe Illustrator 29.8.2, SVG Export Plug-In . SVG Version: 2.1.1 Build 3)  -->
  <path d="M8.6,2.6c4.3-1.5,9.2,0,11.7,3.9,1.7,2.5,2.1,5.6,1.2,8.5h0s0,0,0,0c-.4,1.2-1.6,2-2.8,2h-2.7c-.4,0-.8.3-.9.7,0,.1,0,.3,0,.4v.9c0,1.7-1.4,3-3,3,0,0,0,0,0,0-1.5,0-2.9-.4-4.2-1h0s0,0,0,0h0c-3.2-1.5-5.3-4.5-5.7-8h0c-.5-4.6,2.3-8.9,6.6-10.4ZM12,6c-.6,0-1,.4-1,1s.4,1,1,1h0c.6,0,1-.4,1-1s-.4-1-1-1h0ZM8.5,7.5c-.6,0-1,.4-1,1,0,.6.4,1,1,1h0c.6,0,1-.4,1-1s-.4-1-1-1c0,0,0,0,0,0ZM15.5,7.5c-.6,0-1,.4-1,1,0,.6.4,1,1,1h0c.6,0,1-.4,1-1s-.4-1-1-1c0,0,0,0,0,0ZM7,11c-.6,0-1,.4-1,1s.4,1,1,1h0c.6,0,1-.4,1-1s-.4-1-1-1h0Z" fill="#333" fill-rule="evenodd"/>
</svg>