<?xml version="1.0" encoding="UTF-8"?>
<svg id="Layer_1" xmlns="http://www.w3.org/2000/svg" width="24" height="24" version="1.1" viewBox="0 0 24 24">
  <!-- Generator: Adobe Illustrator 29.8.2, SVG Export Plug-In . SVG Version: 2.1.1 Build 3)  -->
  <path d="M20,15V3c0-.6-.4-1-1-1H5c-.6,0-1,.4-1,1v12" fill="none" stroke="#333" stroke-linejoin="round" stroke-width="2"/>
  <path d="M20,14H4c-.6,0-1,.4-1,1v6c0,1.1.9,2,2,2h14c1.1,0,2-.9,2-2v-6c0-.6-.4-1-1-1ZM13,19.5h-2c-.6,0-1-.4-1-1s.4-1,1-1h2c.6,0,1,.4,1,1s-.4,1-1,1Z" fill="#333"/>
</svg>