<?xml version="1.0" encoding="UTF-8"?>
<svg id="Layer_1" xmlns="http://www.w3.org/2000/svg" width="24" height="24" version="1.1" viewBox="0 0 24 24">
  <!-- Generator: Adobe Illustrator 29.8.2, SVG Export Plug-In . SVG Version: 2.1.1 Build 3)  -->
  <path d="M3,4.9c0-1,.8-1.9,1.9-1.9h4.5c1,0,1.9.8,1.9,1.9v4.5c0,1-.8,1.9-1.9,1.9h-4.5c-1,0-1.9-.8-1.9-1.9h0v-4.5ZM4.9,4.5c-.2,0-.4.2-.4.4v4.5c0,.2.2.4.4.4h4.5c.2,0,.4-.2.4-.4v-4.5c0-.2-.2-.4-.4-.4h-4.5ZM12.8,4.9c0-1,.8-1.9,1.9-1.9h4.5c1,0,1.9.8,1.9,1.9v4.5c0,1-.8,1.9-1.9,1.9h-4.5c-1,0-1.9-.8-1.9-1.9h0v-4.5ZM14.6,4.5c-.2,0-.4.2-.4.4v4.5c0,.2.2.4.4.4h4.5c.2,0,.4-.2.4-.4v-4.5c0-.2-.2-.4-.4-.4h-4.5ZM6,6.8c0-.4.3-.8.8-.8h.8c.4,0,.8.3.8.8v.8c0,.4-.3.8-.8.8h-.8c-.4,0-.8-.3-.8-.8v-.8ZM15.8,6.8c0-.4.3-.8.8-.8h.8c.4,0,.8.3.8.8v.8c0,.4-.3.8-.8.8h-.8c-.4,0-.8-.3-.8-.8v-.8ZM3,14.6c0-1,.8-1.9,1.9-1.9h4.5c1,0,1.9.8,1.9,1.9v4.5c0,1-.8,1.9-1.9,1.9h-4.5c-1,0-1.9-.8-1.9-1.9h0v-4.5ZM4.9,14.2c-.2,0-.4.2-.4.4h0v4.5c0,.2.2.4.4.4h4.5c.2,0,.4-.2.4-.4v-4.5c0-.2-.2-.4-.4-.4h-4.5ZM12.8,13.5c0-.4.3-.8.8-.8h.8c.4,0,.8.3.8.8v.8c0,.4-.3.8-.8.8h-.8c-.4,0-.8-.3-.8-.8v-.8ZM18.8,13.5c0-.4.3-.8.8-.8h.8c.4,0,.8.3.8.8v.8c0,.4-.3.8-.8.8h-.8c-.4,0-.8-.3-.8-.8v-.8ZM6,16.5c0-.4.3-.8.8-.8h.8c.4,0,.8.3.8.8v.8c0,.4-.3.8-.8.8h-.8c-.4,0-.8-.3-.8-.8v-.8ZM15.8,16.5c0-.4.3-.8.8-.8h.8c.4,0,.8.3.8.8v.8c0,.4-.3.8-.8.8h-.8c-.4,0-.8-.3-.8-.8v-.8ZM12.8,19.5c0-.4.3-.8.8-.8h.8c.4,0,.8.3.8.8v.8c0,.4-.3.8-.8.8h-.8c-.4,0-.8-.3-.8-.8v-.8ZM18.8,19.5c0-.4.3-.8.8-.8h.8c.4,0,.8.3.8.8v.8c0,.4-.3.8-.8.8h-.8c-.4,0-.8-.3-.8-.8v-.8Z" fill="#333" fill-rule="evenodd"/>
</svg>