<?xml version="1.0" encoding="UTF-8"?>
<svg id="Layer_1" xmlns="http://www.w3.org/2000/svg" width="24" height="24" version="1.1" viewBox="0 0 24 24">
  <!-- Generator: Adobe Illustrator 29.8.2, SVG Export Plug-In . SVG Version: 2.1.1 Build 3)  -->
  <path d="M6.4,2.2c-.8,0-1.4.6-1.4,1.4s.6,1.4,1.4,1.4h2.8c1.8,0,3.4,1.2,3.9,2.8h-6.7c-.8,0-1.4.6-1.4,1.4s.6,1.4,1.4,1.4h6.7c-.6,1.7-2.2,2.8-3.9,2.8h-2.8c-.8,0-1.4.6-1.4,1.4,0,.4.1.7.4,1l5.6,5.6c.5.6,1.4.6,2,0,.6-.5.6-1.4,0-2,0,0,0,0,0,0l-3.2-3.2c3.1-.2,5.6-2.5,6.3-5.5h1.5c.8,0,1.4-.6,1.4-1.4s-.6-1.4-1.4-1.4h-1.5c-.2-1-.6-2-1.3-2.8h2.8c.8,0,1.4-.6,1.4-1.4s-.6-1.4-1.4-1.4H6.4Z" fill-rule="evenodd"/>
</svg>