<?xml version="1.0" encoding="UTF-8"?>
<svg id="Layer_1" xmlns="http://www.w3.org/2000/svg" width="24" height="24" version="1.1" viewBox="0 0 24 24">
  <!-- Generator: Adobe Illustrator 29.8.2, SVG Export Plug-In . SVG Version: 2.1.1 Build 3)  -->
  <path d="M10,3v4c0,.6-.4,1-1,1h-4M19,4v16c0,.6-.4,1-1,1H6c-.6,0-1-.4-1-1V7.9c0-.3.1-.5.3-.7l3.9-3.9c.2-.2.4-.3.7-.3h8.1c.6,0,1,.4,1,1ZM8,18h8l-2-4-1.5,2-2-4-2.5,6ZM15,9.5c0,.3-.2.5-.5.5s-.5-.2-.5-.5.2-.5.5-.5.5.2.5.5Z" fill="none" stroke="#000" stroke-linecap="round" stroke-linejoin="round" stroke-width="2"/>
</svg>