<?xml version="1.0" encoding="UTF-8"?>
<svg id="Layer_1" xmlns="http://www.w3.org/2000/svg" width="24" height="24" version="1.1" viewBox="0 0 24 24">
  <!-- Generator: Adobe Illustrator 29.8.2, SVG Export Plug-In . SVG Version: 2.1.1 Build 3)  -->
  <path d="M12,1.3C6.1,1.3,1.3,6.1,1.3,12s4.8,10.8,10.7,10.8,10.8-4.8,10.8-10.8S17.9,1.3,12,1.3M12.7,6.5c0-.4-.4-.7-.8-.7-.4,0-.7.3-.7.7v.8h-2.3c-.4,0-.7.4-.7.8,0,.4.3.7.7.7h.3v6.5h-.3c-.4,0-.7.4-.7.8,0,.4.3.7.7.7h2.3v.8c0,.4.4.7.8.7.4,0,.7-.3.7-.7v-.8h.3c1.5,0,2.8-1.2,2.7-2.8,0-.8-.3-1.5-.9-2,1.1-1,1.1-2.8,0-3.9-.5-.5-1.2-.9-2-.9h-.3v-.8ZM10.7,11.3v-2.5h2.3c.7,0,1.3.6,1.3,1.3s-.6,1.3-1.3,1.3h-2.3ZM10.7,12.7h2.3c.7,0,1.3.6,1.3,1.3s-.6,1.3-1.3,1.3h-2.3v-2.5Z" fill-rule="evenodd"/>
</svg>