<?xml version="1.0" encoding="UTF-8"?>
<svg id="Layer_1" xmlns="http://www.w3.org/2000/svg" width="24" height="24" version="1.1" viewBox="0 0 24 24">
  <!-- Generator: Adobe Illustrator 29.8.2, SVG Export Plug-In . SVG Version: 2.1.1 Build 3)  -->
  <path d="M12.1,1.8c2.2,0,3.9,0,5.3.2,1.4.2,2.5.6,3.3,1.4.9.9,1.2,2,1.4,3.3.2,1.3.2,3.1.2,5.3h0c0,2.3,0,4-.2,5.4-.2,1.4-.6,2.5-1.4,3.3s-2,1.2-3.3,1.4c-1.3.2-3.1.2-5.3.2h-.1c-2.2,0-3.9,0-5.3-.2-1.4-.2-2.5-.6-3.3-1.4-.9-.9-1.2-2-1.4-3.3-.2-1.3-.2-3.1-.2-5.3h0c0-2.3,0-4,.2-5.4.2-1.4.6-2.5,1.4-3.3s2-1.2,3.3-1.4c1.3-.2,3.1-.2,5.3-.2h.1ZM16.5,12c0,2.5-2,4.5-4.5,4.5s-4.5-2-4.5-4.5,2-4.5,4.5-4.5,4.5,2,4.5,4.5M17.5,7.5c.5,0,1-.4,1-1s-.4-1-1-1h0c-.6,0-1,.5-1,1,0,.6.4,1,1,1h0Z" fill-rule="evenodd"/>
</svg>