<svg xmlns="http://www.w3.org/2000/svg" width="24" height="24" viewBox="0 0 4.5 4.5" fill="none" class="injected-svg" data-src="https://cdn.hugeicons.com/icons/new-twitter-solid-standard.svg?v=1.0.1" xmlns:xlink="http://www.w3.org/1999/xlink" role="img" color="#000000"><path fill-rule="evenodd" clip-rule="evenodd" d="M0.396 0.477A0.188 0.188 0 0 1 0.563 0.375h0.938a0.188 0.188 0 0 1 0.152 0.078l0.893 1.237 1.26 -1.26a0.188 0.188 0 1 1 0.265 0.265l-1.302 1.302 1.322 1.83A0.188 0.188 0 0 1 3.938 4.125h-0.938a0.188 0.188 0 0 1 -0.152 -0.078l-0.893 -1.237 -1.26 1.26a0.188 0.188 0 0 1 -0.265 -0.265l1.302 -1.302 -1.322 -1.83a0.188 0.188 0 0 1 -0.015 -0.195" fill="#000000"/></svg>