<?xml version="1.0" encoding="UTF-8"?>
<svg id="Layer_1" xmlns="http://www.w3.org/2000/svg" width="24" height="24" version="1.1" viewBox="0 0 24 24">
  <!-- Generator: Adobe Illustrator 29.8.2, SVG Export Plug-In . SVG Version: 2.1.1 Build 3)  -->
  <path d="M19.9,4.4H4.1c-1.1,0-2,.9-2,2v11.9c0,1.1.9,2,2,2h15.9c1.1,0,2-.9,2-2V6.4c0-1.1-.9-2-2-2ZM7.5,14.4l-.9-3.3c0-.2-.1-.3-.3-.4h0c-.3-.2-.7-.3-1-.3h0s0-.1,0-.1h1.8c.2,0,.5.2.5.4h0s.5,2.4.5,2.4l1.1-2.8h1.1s-1.7,4.1-1.7,4.1h-1.1ZM10,14.4l.9-4.1h1.1l-.9,4.1h-1.1ZM13,14.4h0c-.4,0-.8,0-1.2-.2l.2-.9h0c.3.2.7.3,1.1.3s0,0,0,0c.3,0,.6-.1.6-.4,0-.2-.1-.3-.6-.5-.4-.2-.9-.5-.9-1.1,0-.8.8-1.4,1.8-1.4h0c.4,0,.7,0,1,.2l-.2.9h0c-.3-.1-.6-.2-.9-.2s-.1,0-.2,0c-.3,0-.5.2-.5.3,0,.5,1.5.5,1.5,1.6h0c0,.9-.7,1.4-1.9,1.4ZM17.6,14.4v-.6h-1.5l-.2.6h-1.1l1.6-3.8h0c0-.2.2-.3.5-.3h.9l.9,4.1h-1Z" fill-rule="evenodd"/>
  <polygon points="16.4 12.9 17.3 12.9 17 11.4 16.4 12.9" fill-rule="evenodd"/>
</svg>