<?xml version="1.0" encoding="UTF-8"?>
<svg id="Layer_1" xmlns="http://www.w3.org/2000/svg" width="24" height="24" version="1.1" viewBox="0 0 24 24">
  <!-- Generator: Adobe Illustrator 29.8.2, SVG Export Plug-In . SVG Version: 2.1.1 Build 3)  -->
  <path d="M22.3,7.9c-.2-2-1.8-3.6-3.8-3.7-2.8-.1-5-.2-6.5-.2s-3.7,0-6.5.2h0c-2,0-3.6,1.7-3.8,3.7-.1,1.6-.2,2.9-.2,4.1s0,2.6.2,4.2c.2,2,1.7,3.5,3.7,3.7,2.4.2,4.6.2,6.6.2s4.2,0,6.6-.2c2-.1,3.6-1.7,3.7-3.7.1-1.6.2-3,.2-4.1s0-2.6-.2-4.1ZM15.6,12.3c0,.4-.3.7-.6.9l-3.3,2.2c-.2.2-.5.2-.8.2-.8,0-1.4-.6-1.4-1.4v-4.4c0-.3,0-.6.2-.8.4-.7,1.3-.8,2-.4l3.3,2.2c.2.1.3.2.4.4.2.3.3.7.2,1.1Z" fill="#333"/>
</svg>