<?xml version="1.0" encoding="UTF-8"?>
<svg id="Layer_1" xmlns="http://www.w3.org/2000/svg" width="24" height="24" version="1.1" viewBox="0 0 24 24">
  <!-- Generator: Adobe Illustrator 29.8.2, SVG Export Plug-In . SVG Version: 2.1.1 Build 3)  -->
  <g id="g126">
    <path id="path128" d="M17.6,14.8h-1.1l1.6-5.6h1.1s-1.6,5.6-1.6,5.6Z"/>
  </g>
  <g id="g130">
    <path id="path132" d="M15.9,12.5c.2,0,.4-.2.5-.4l.6-2.7c0-.2,0-.4-.3-.4h-6.3l-.3,1.1h5.6l-.3,1.2h-5.6l-.9,3.4h1.1l.6-2.3h5.3Z"/>
  </g>
  <g id="g134">
    <path id="path136" d="M8.2,14.5c0,.2-.3.4-.5.4H1.9c-.2,0-.3,0-.4-.2v-.4l1.4-5.1h1.1l-1.3,4.5h4.5l1.3-4.5h1.1l-1.4,5.3Z"/>
  </g>
  <g id="g138">
    <path id="path140" d="M21.1,9.2l1.4,2.8-3,2.8s1.6-5.6,1.6-5.6Z"/>
  </g>
  <g id="g142">
    <path id="path144" d="M20.1,9.2l1.4,2.8-3,2.8s1.6-5.6,1.6-5.6Z"/>
  </g>
</svg>