<?xml version="1.0" encoding="UTF-8"?>
<svg id="Layer_1" xmlns="http://www.w3.org/2000/svg" width="24" height="24" version="1.1" viewBox="0 0 24 24">
  <!-- Generator: Adobe Illustrator 29.8.2, SVG Export Plug-In . SVG Version: 2.1.1 Build 3)  -->
  <path d="M8,21h-.4c0,0-.2-.1-.3-.2l-4-4c-.4-.4-.4-1,0-1.4s1-.4,1.4,0l2.3,2.3V7c0-.6.4-1,1-1s1,.4,1,1v10.6l2.3-2.3c.4-.4,1-.4,1.4,0s.4,1,0,1.4l-4,4s-.2.2-.3.2h-.4,0ZM16,18c-.6,0-1-.4-1-1V6.4l-2.3,2.3c-.4.4-1,.4-1.4,0s-.4-1,0-1.4l4-4s.2-.2.3-.2h.8c.1,0,.2,0,.3.2l4,4c.4.4.4,1,0,1.4s-1,.4-1.4,0l-2.3-2.3v10.6c0,.6-.4,1-1,1Z"/>
</svg>