<?xml version="1.0" encoding="UTF-8"?>
<svg id="Layer_1" xmlns="http://www.w3.org/2000/svg" width="24" height="24" version="1.1" viewBox="0 0 24 24">
  <!-- Generator: Adobe Illustrator 29.8.2, SVG Export Plug-In . SVG Version: 2.1.1 Build 3)  -->
  <path d="M9,21h-2c-2.2,0-4-1.8-4-4V7c0-2.2,1.8-4,4-4h2c.6,0,1,.4,1,1s-.4,1-1,1h-2c-1.1,0-2,.9-2,2v10c0,1.1.9,2,2,2h2c.6,0,1,.4,1,1s-.4,1-1,1ZM16,17c-.3,0-.5,0-.7-.3-.4-.4-.4-1,0-1.4l2.3-2.3h-9.6c-.6,0-1-.4-1-1s.4-1,1-1h9.6l-2.3-2.3c-.4-.4-.4-1,0-1.4s1-.4,1.4,0l4,4c0,0,.2.2.2.3,0,.1,0,.2,0,.4h0c0,.1,0,.3,0,.4,0,.1-.1.2-.2.3l-4,4c-.2.2-.5.3-.7.3Z"/>
</svg>