<?xml version="1.0" encoding="UTF-8"?>
<svg id="Layer_1" xmlns="http://www.w3.org/2000/svg" width="24" height="24" version="1.1" viewBox="0 0 24 24">
  <!-- Generator: Adobe Illustrator 29.8.2, SVG Export Plug-In . SVG Version: 2.1.1 Build 3)  -->
  <path d="M8,21c-.3,0-.5,0-.7-.3l-3-3c0,0-.2-.2-.2-.3,0-.1,0-.2,0-.4h0c0-.1,0-.3,0-.4,0-.1.1-.2.2-.3l3-3c.4-.4,1-.4,1.4,0s.4,1,0,1.4l-1.3,1.3h10.6v-2c0-.6.4-1,1-1s1,.4,1,1v3c0,.6-.4,1-1,1H7.4l1.3,1.3c.4.4.4,1,0,1.4s-.5.3-.7.3ZM16,11c-.3,0-.5,0-.7-.3-.4-.4-.4-1,0-1.4l1.3-1.3H6v2c0,.6-.4,1-1,1s-1-.4-1-1v-3c0-.6.4-1,1-1h11.6l-1.3-1.3c-.4-.4-.4-1,0-1.4s1-.4,1.4,0l3,3c0,0,.2.2.2.3,0,.1,0,.2,0,.4h0c0,.1,0,.3,0,.4,0,.1-.1.2-.2.3l-3,3c-.2.2-.5.3-.7.3Z"/>
</svg>