<?xml version="1.0" encoding="UTF-8"?>
<svg id="Layer_1" xmlns="http://www.w3.org/2000/svg" width="24" height="24" version="1.1" viewBox="0 0 24 24">
  <!-- Generator: Adobe Illustrator 29.8.2, SVG Export Plug-In . SVG Version: 2.1.1 Build 3)  -->
  <path d="M17,21H7c-2.2,0-4-1.8-4-4v-2c0-.6.4-1,1-1s1,.4,1,1v2c0,1.1.9,2,2,2h10c1.1,0,2-.9,2-2v-2c0-.6.4-1,1-1s1,.4,1,1v2c0,2.2-1.8,4-4,4ZM12,17c-.6,0-1-.4-1-1V6.4l-2.3,2.3c-.4.4-1,.4-1.4,0s-.4-1,0-1.4l4-4c0,0,.2-.2.3-.2.1,0,.2,0,.4,0h0c.1,0,.3,0,.4,0,.1,0,.2.1.3.2l4,4c.4.4.4,1,0,1.4s-1,.4-1.4,0l-2.3-2.3v9.6c0,.6-.4,1-1,1Z"/>
</svg>