<?xml version="1.0" encoding="UTF-8"?>
<svg id="Layer_1" xmlns="http://www.w3.org/2000/svg" width="24" height="24" version="1.1" viewBox="0 0 24 24">
  <!-- Generator: Adobe Illustrator 29.8.2, SVG Export Plug-In . SVG Version: 2.1.1 Build 3)  -->
  <path d="M12,20c-.3,0-.5,0-.7-.3l-4-4c-.4-.4-.4-1,0-1.4s1-.4,1.4,0l3.3,3.3,3.3-3.3c.4-.4,1-.4,1.4,0s.4,1,0,1.4l-4,4c-.2.2-.5.3-.7.3ZM16,10c-.3,0-.5,0-.7-.3l-3.3-3.3-3.3,3.3c-.4.4-1,.4-1.4,0s-.4-1,0-1.4l4-4c.4-.4,1-.4,1.4,0l4,4c.4.4.4,1,0,1.4s-.5.3-.7.3Z"/>
</svg>