<?xml version="1.0" encoding="UTF-8"?>
<svg id="Layer_1" xmlns="http://www.w3.org/2000/svg" width="24" height="24" version="1.1" viewBox="0 0 24 24">
  <!-- Generator: Adobe Illustrator 29.8.2, SVG Export Plug-In . SVG Version: 2.1.1 Build 3)  -->
  <path d="M16,21c-.6,0-1-.4-1-1v-4c0-.6.4-1,1-1h4c.6,0,1,.4,1,1s-.4,1-1,1h-3v3c0,.6-.4,1-1,1ZM8,21c-.6,0-1-.4-1-1v-3h-3c-.6,0-1-.4-1-1s.4-1,1-1h4c.6,0,1,.4,1,1v4c0,.6-.4,1-1,1ZM20,9h-4c-.6,0-1-.4-1-1v-4c0-.6.4-1,1-1s1,.4,1,1v3h3c.6,0,1,.4,1,1s-.4,1-1,1ZM8,9h-4c-.6,0-1-.4-1-1s.4-1,1-1h3v-3c0-.6.4-1,1-1s1,.4,1,1v4c0,.6-.4,1-1,1Z"/>
</svg>