<?xml version="1.0" encoding="UTF-8"?>
<svg id="Layer_1" xmlns="http://www.w3.org/2000/svg" width="24" height="24" version="1.1" viewBox="0 0 24 24">
  <!-- Generator: Adobe Illustrator 29.8.2, SVG Export Plug-In . SVG Version: 2.1.1 Build 3)  -->
  <path d="M20,21h-4c-.6,0-1-.4-1-1s.4-1,1-1h1.6l-3.3-3.3c-.4-.4-.4-1,0-1.4s1-.4,1.4,0l3.3,3.3v-1.6c0-.6.4-1,1-1s1,.4,1,1v4h0c0,.1,0,.3,0,.4,0,.1-.1.2-.2.3s-.2.2-.3.2c-.1,0-.2,0-.4,0h0ZM8,21H4c-.1,0-.3,0-.4,0-.1,0-.2-.1-.3-.2s-.2-.2-.2-.3c0-.1,0-.2,0-.4h0v-4c0-.6.4-1,1-1s1,.4,1,1v1.6l3.3-3.3c.4-.4,1-.4,1.4,0s.4,1,0,1.4l-3.3,3.3h1.6c.6,0,1,.4,1,1s-.4,1-1,1ZM15,10c-.3,0-.5,0-.7-.3-.4-.4-.4-1,0-1.4l3.3-3.3h-1.6c-.6,0-1-.4-1-1s.4-1,1-1h4c.1,0,.3,0,.4,0,.1,0,.2.1.3.2s.2.2.2.3c0,.1,0,.2,0,.4h0v4c0,.6-.4,1-1,1s-1-.4-1-1v-1.6l-3.3,3.3c-.2.2-.5.3-.7.3ZM9,10c-.3,0-.5,0-.7-.3l-3.3-3.3v1.6c0,.6-.4,1-1,1s-1-.4-1-1v-4h0c0-.1,0-.3,0-.4,0-.1.1-.2.2-.3s.2-.2.3-.2c.1,0,.2,0,.4,0h4c.6,0,1,.4,1,1s-.4,1-1,1h-1.6l3.3,3.3c.4.4.4,1,0,1.4s-.5.3-.7.3Z"/>
</svg>