<?xml version="1.0" encoding="UTF-8"?>
<svg id="Layer_1" xmlns="http://www.w3.org/2000/svg" width="24" height="24" version="1.1" viewBox="0 0 24 24">
  <!-- Generator: Adobe Illustrator 29.8.2, SVG Export Plug-In . SVG Version: 2.1.1 Build 3)  -->
  <path d="M17,20h-9c-3.3,0-6-2.7-6-6s2.7-6,6-6h10.6l-2.3-2.3c-.4-.4-.4-1,0-1.4s1-.4,1.4,0l4,4c0,0,.2.2.2.3,0,.1,0,.2,0,.4h0c0,.1,0,.3,0,.4,0,.1-.1.2-.2.3l-4,4c-.4.4-1,.4-1.4,0s-.4-1,0-1.4l2.3-2.3h-10.6c-2.2,0-4,1.8-4,4s1.8,4,4,4h9c.6,0,1,.4,1,1s-.4,1-1,1Z"/>
</svg>