<?xml version="1.0" encoding="UTF-8"?>
<svg id="Layer_1" xmlns="http://www.w3.org/2000/svg" width="24" height="24" version="1.1" viewBox="0 0 24 24">
  <!-- Generator: Adobe Illustrator 29.8.2, SVG Export Plug-In . SVG Version: 2.1.1 Build 3)  -->
  <path d="M6,21c-.6,0-1-.4-1-1v-4c0-.6.4-1,1-1h4c.6,0,1,.4,1,1s-.4,1-1,1h-1.6c2.1,1.5,5.1,1.5,7.3-.1,1.2-.9,2-2.3,2.3-3.8,0-.5.6-.9,1.2-.8.5,0,.9.6.8,1.2-.3,2-1.4,3.8-3.1,5.1-3,2.3-7.1,2.2-10,0v1.6c0,.6-.4,1-1,1ZM5,11.8c0,0-.1,0-.2,0-.5,0-.9-.6-.8-1.2.3-2,1.4-3.8,3.1-5.1,3-2.3,7.1-2.2,10,0v-1.6c0-.6.4-1,1-1s1,.4,1,1v4c0,.6-.4,1-1,1h-4c-.6,0-1-.4-1-1s.4-1,1-1h1.5c-2.1-1.5-5.1-1.5-7.3.1-1.2.9-2,2.3-2.3,3.8,0,.5-.5.8-1,.8Z"/>
</svg>