<?xml version="1.0" encoding="UTF-8"?>
<svg id="Layer_1" xmlns="http://www.w3.org/2000/svg" width="24" height="24" version="1.1" viewBox="0 0 24 24">
  <!-- Generator: Adobe Illustrator 29.8.2, SVG Export Plug-In . SVG Version: 2.1.1 Build 3)  -->
  <path d="M8.9,18.6c-.2,0-.5,0-.7-.3l-5.6-5.1s-.1-.1-.1-.1c-.4-.4-.6-.9-.5-1.5,0-.5.3-1.1.7-1.4l5.5-5c.4-.4,1-.3,1.4,0,.4.4.3,1,0,1.4l-5.5,5,5.6,5.2c.4.4.4,1,0,1.4-.2.2-.5.3-.7.3Z"/>
  <path d="M14.7,14.8v1.9c0,.6-.4,1.2-1,1.2-.3,0-.6,0-.8-.2l-6.1-5c-.5-.5-.6-1.3-.1-1.8,0,0,0,0,.1-.1l6.1-5c.5-.4,1.2-.3,1.6.2.2.2.3.5.2.8v2c3.9,0,7.1,3.5,7.1,7.9v1.6c0,.5-.3.9-.7.9-.4,0-.7-.2-.9-.5-.9-2.2-3.1-3.7-5.5-3.8,0,0,0,0,0,0Z"/>
</svg>