<?xml version="1.0" encoding="UTF-8"?>
<svg id="Layer_1" xmlns="http://www.w3.org/2000/svg" width="24" height="24" version="1.1" viewBox="0 0 24 24">
  <!-- Generator: Adobe Illustrator 29.8.2, SVG Export Plug-In . SVG Version: 2.1.1 Build 3)  -->
  <path d="M15,18.6c-.3,0-.5-.1-.7-.3-.4-.4-.3-1,0-1.4l5.6-5.1-5.5-5c-.4-.4-.4-1,0-1.4.4-.4,1-.4,1.4,0l5.5,5c.4.4.6.9.7,1.4s-.2,1.1-.5,1.5c0,0-.1.1-.1.1l-5.6,5.1c-.2.2-.4.3-.7.3Z"/>
  <path d="M8.8,14.8v2c0,.6.4,1.2,1,1.3.3,0,.6,0,.8-.2l6.2-5.2c.6-.5.6-1.3.1-1.9,0,0,0,0-.1-.1l-6.2-5.2c-.5-.4-1.2-.3-1.6.2-.2.2-.3.5-.2.8v2.1c-4,0-7.3,3.6-7.3,8.1v1.6c0,.5.3.9.7,1,.4,0,.8-.2.9-.5,1-2.3,3.2-3.8,5.7-3.9,0,0,0,0,0,0Z"/>
</svg>