<?xml version="1.0" encoding="UTF-8"?>
<svg id="Layer_1" xmlns="http://www.w3.org/2000/svg" width="24" height="24" version="1.1" viewBox="0 0 24 24">
  <!-- Generator: Adobe Illustrator 29.8.2, SVG Export Plug-In . SVG Version: 2.1.1 Build 3)  -->
  <path d="M8,21c-.3,0-.5,0-.7-.3l-4-4c0,0-.2-.2-.2-.3,0-.1,0-.2,0-.4h0c0-.1,0-.3,0-.4,0-.1.1-.2.2-.3l4-4c.4-.4,1-.4,1.4,0s.4,1,0,1.4l-2.3,2.3h10.6c.6,0,1,.4,1,1s-.4,1-1,1H6.4l2.3,2.3c.4.4.4,1,0,1.4s-.5.3-.7.3ZM16,13c-.3,0-.5,0-.7-.3-.4-.4-.4-1,0-1.4l2.3-2.3H7c-.6,0-1-.4-1-1s.4-1,1-1h10.6l-2.3-2.3c-.4-.4-.4-1,0-1.4s1-.4,1.4,0l4,4c0,0,.2.2.2.3,0,.1,0,.2,0,.4h0c0,.1,0,.3,0,.4,0,.1-.1.2-.2.3l-4,4c-.2.2-.5.3-.7.3Z"/>
</svg>