<?xml version="1.0" encoding="UTF-8"?>
<svg id="Layer_1" xmlns="http://www.w3.org/2000/svg" width="24" height="24" version="1.1" viewBox="0 0 24 24">
  <!-- Generator: Adobe Illustrator 29.8.2, SVG Export Plug-In . SVG Version: 2.1.1 Build 3)  -->
  <path d="M16,20H7c-.6,0-1-.4-1-1s.4-1,1-1h9c2.2,0,4-1.8,4-4s-1.8-4-4-4H5.4l2.3,2.3c.4.4.4,1,0,1.4s-1,.4-1.4,0l-4-4c0,0-.2-.2-.2-.3,0-.1,0-.2,0-.4h0c0-.1,0-.3,0-.4,0-.1.1-.2.2-.3l4-4c.4-.4,1-.4,1.4,0s.4,1,0,1.4l-2.3,2.3h10.6c3.3,0,6,2.7,6,6s-2.7,6-6,6Z"/>
</svg>