<?xml version="1.0" encoding="UTF-8"?>
<svg id="Layer_1" xmlns="http://www.w3.org/2000/svg" width="24" height="24" version="1.1" viewBox="0 0 24 24">
  <!-- Generator: Adobe Illustrator 29.8.2, SVG Export Plug-In . SVG Version: 2.1.1 Build 3)  -->
  <path d="M7.3,5.7l2.3.9s.5-1.9,2.3-1.9,2,1.7,1.9,3.3c-6.1,0-7,2.8-7,4.2s.9,3.7,3.7,3.7,3.7-1.9,3.7-1.9l.9,1.4,2.3-1.9s-.9-.8-.9-1.9v-3.3s.6-6.1-4.7-6.1-4.7,3.3-4.7,3.3Z" fill="none" stroke="#000" stroke-linecap="round" stroke-linejoin="round"/>
  <path d="M13.4,10.2c0,1.4-.9,3.3-2.1,3.3s-1.7-3.3,2.1-3.3Z" fill="none" stroke="#000" stroke-linecap="round" stroke-linejoin="round"/>
  <path d="M2.7,16.4s7.9,5.7,15.8,1.9c0,0-7.9,5.2-15.8-1.9Z" fill="none" stroke="#000" stroke-linecap="round" stroke-linejoin="round"/>
  <path d="M21.3,16.6c.1,1.3-1.3,3.1-1.3,3.1,0,0,.9-1.5.7-3.1-1.5-.6-3.2,0-3.2,0,0,0,1.4-1,3.2-.7.3,0,.5.3.5.6Z" fill="none" stroke="#000" stroke-linejoin="round"/>
</svg>