<?xml version="1.0" encoding="UTF-8"?>
<svg id="Layer_1" xmlns="http://www.w3.org/2000/svg" width="24" height="24" version="1.1" viewBox="0 0 24 24">
  <!-- Generator: Adobe Illustrator 29.8.2, SVG Export Plug-In . SVG Version: 2.1.1 Build 3)  -->
  <path d="M17.3,12.6c0,1.8,1.3,3.4,2.9,4-.3,1-.8,2-1.4,2.8-.8,1.2-1.7,2.4-3.1,2.5-1.3,0-1.8-.8-3.3-.8s-2,.8-3.3.8-2.3-1.3-3.2-2.5c-1.7-2.5-3-7-1.3-10.1.8-1.5,2.4-2.5,4.1-2.5s2.5.9,3.3.9,2.3-1.1,3.8-.9c1.5,0,2.8.8,3.7,2-1.3.8-2.1,2.2-2.2,3.8ZM16,1c-1.1,0-2.2.7-2.9,1.5-.8.8-1.1,2-1.1,3.1,0,0,4-.6,4-4.6Z" fill="none" stroke="#000" stroke-miterlimit="10"/>
</svg>