<?xml version="1.0" encoding="UTF-8"?>
<svg id="Layer_1" xmlns="http://www.w3.org/2000/svg" width="48" height="48" version="1.1" viewBox="0 0 48 48">
  <!-- Generator: Adobe Illustrator 29.8.2, SVG Export Plug-In . SVG Version: 2.1.1 Build 3)  -->
  <path d="M30.4,34.7l2.4,3.4c.2.4.7.6,1.1.4,1.5-.6,5.2-2.1,8.2-4.3.2,0,.4-.4.4-.7,0-16.4-4.7-21.1-4.7-21.1,0,0-3.7-2.1-7.6-2.8-.4,0-.7,0-.9.6l-.7,1.7s-2.1-.4-4.5-.4-4.5.4-4.5.4l-.7-1.7c0-.4-.6-.6-.9-.6-3.9.6-7.6,2.8-7.6,2.8,0,0-4.7,4.7-4.7,21.1,0,0,0,.6.4.7,3,2.2,6.7,3.7,8.2,4.3.4,0,.7,0,1.1-.4l2.4-3.4" fill="none" stroke="#000" stroke-linecap="round" stroke-linejoin="round" stroke-width="2"/>
  <path d="M34.2,33s-4.3,2.8-10.3,2.8-10.3-2.8-10.3-2.8" fill="none" stroke="#000" stroke-linecap="round" stroke-linejoin="round" stroke-width="2"/>
  <path d="M33.6,24.6c0,2.1-1.5,3.7-3.2,3.7s-3.2-1.7-3.2-3.7,1.5-3.7,3.2-3.7,3.2,1.7,3.2,3.7Z" fill="none" stroke="#000" stroke-miterlimit="21.3" stroke-width="2"/>
  <path d="M20.7,24.6c0,2.1-1.5,3.7-3.2,3.7s-3.2-1.7-3.2-3.7,1.5-3.7,3.2-3.7,3.2,1.7,3.2,3.7Z" fill="none" stroke="#000" stroke-miterlimit="21.3" stroke-width="2"/>
</svg>