<?xml version="1.0" encoding="UTF-8"?>
<svg id="Layer_1" xmlns="http://www.w3.org/2000/svg" width="24" height="24" version="1.1" viewBox="0 0 24 24">
  <!-- Generator: Adobe Illustrator 29.8.2, SVG Export Plug-In . SVG Version: 2.1.1 Build 3)  -->
  <path d="M15.5,17.7l1.3,1.8c.1.2.4.3.6.2.8-.3,2.8-1.1,4.4-2.3.1,0,.2-.2.2-.4,0-8.8-2.5-11.3-2.5-11.3,0,0-2-1.1-4.1-1.5-.2,0-.4,0-.5.3l-.4.9s-1.1-.2-2.4-.2-2.4.2-2.4.2l-.4-.9c0-.2-.3-.3-.5-.3-2.1.3-4.1,1.5-4.1,1.5,0,0-2.5,2.5-2.5,11.3,0,.2,0,.3.2.4,1.6,1.2,3.6,2,4.4,2.3.2,0,.4,0,.6-.2l1.3-1.8" fill="none" stroke="#000" stroke-linecap="round" stroke-linejoin="round" stroke-width="1"/>
  <path d="M17.5,16.8s-2.3,1.5-5.5,1.5-5.5-1.5-5.5-1.5" fill="none" stroke="#000" stroke-linecap="round" stroke-linejoin="round" stroke-width="1"/>
  <path d="M17.2,12.3c0,1.1-.8,2-1.7,2s-1.7-.9-1.7-2,.8-2,1.7-2,1.7.9,1.7,2Z" fill="none" stroke="#000" stroke-miterlimit="21.3" stroke-width="1"/>
  <path d="M10.3,12.3c0,1.1-.8,2-1.7,2s-1.7-.9-1.7-2,.8-2,1.7-2,1.7.9,1.7,2Z" fill="none" stroke="#000" stroke-miterlimit="21.3" stroke-width="1"/>
</svg>