<?xml version="1.0" encoding="UTF-8"?>
<svg id="Layer_1" xmlns="http://www.w3.org/2000/svg" width="24" height="24" version="1.1" viewBox="0 0 24 24">
  <!-- Generator: Adobe Illustrator 29.8.2, SVG Export Plug-In . SVG Version: 2.1.1 Build 3)  -->
  <path d="M22,12c0,5.5-4.5,10-10,10S2,17.5,2,12,6.5,2,12,2s10,4.5,10,10Z" fill="none" stroke="#000" stroke-linecap="round" stroke-linejoin="round" stroke-width="1"/>
  <path d="M22,13.3c-.9-.2-1.9-.3-2.9-.3-5.3,0-10.1,2.7-13.1,7" fill="none" stroke="#000" stroke-linejoin="round" stroke-width="1"/>
  <path d="M19,5c-3.1,3.7-7.8,6-13.1,6s-2.7-.2-3.9-.4" fill="none" stroke="#000" stroke-linejoin="round" stroke-width="1"/>
  <path d="M14.6,22c.3-1.2.4-2.5.4-3.8,0-6.3-3.2-11.9-8-15.2" fill="none" stroke="#000" stroke-linejoin="round" stroke-width="1"/>
</svg>