<?xml version="1.0" encoding="UTF-8"?>
<svg id="Layer_1" xmlns="http://www.w3.org/2000/svg" width="24" height="24" version="1.1" viewBox="0 0 24 24">
  <!-- Generator: Adobe Illustrator 29.8.2, SVG Export Plug-In . SVG Version: 2.1.1 Build 3)  -->
  <path d="M12,6.5l5.5,3-5.5,3-5.5-3,5.5-3Z" fill="none" stroke="#000" stroke-linecap="round" stroke-linejoin="round" stroke-width="1"/>
  <path d="M6,15v1.8c0,1,.2,1.4,1.1,1.8l4,2c.9.4.9.4,1.8,0l4-2c.9-.5,1.1-.8,1.1-1.8v-1.8" fill="none" stroke="#000" stroke-linecap="round" stroke-linejoin="round" stroke-width="1"/>
  <path d="M14.3,4.2l-2.3,2.1-2.3-2.1c-.8-.7-1.2-1.1-1.7-1.2-.5,0-1,.3-1.9.9l-1.7,1.1c-.9.6-1.3.9-1.4,1.3s.4.8,1.3,1.4l2.2,1.7-2.2,1.7c-.8.7-1.3,1-1.3,1.4s.5.7,1.4,1.3l2.6,1.7c.5.3.7.5,1,.5.3,0,.5-.2.9-.6l3.1-2.8,2.3,2.1c.8.7,1.2,1.1,1.7,1.2.5,0,1-.3,1.9-.9h0l1.7-1.1c.9-.6,1.3-.9,1.4-1.3s-.4-.8-1.3-1.4l-2.2-1.7,2.2-1.7c.8-.7,1.3-1,1.3-1.4,0-.4-.5-.7-1.4-1.3l-1.7-1.1c-.9-.6-1.4-.9-1.9-.9s-.9.4-1.7,1.2" fill="none" stroke="#000" stroke-linecap="round" stroke-linejoin="round" stroke-width="1"/>
</svg>