<?xml version="1.0" encoding="UTF-8"?>
<svg id="Layer_1" xmlns="http://www.w3.org/2000/svg" width="24" height="24" version="1.1" viewBox="0 0 24 24">
  <!-- Generator: Adobe Illustrator 29.8.2, SVG Export Plug-In . SVG Version: 2.1.1 Build 3)  -->
  <path d="M2.6,16.7c1.5,3.2,4,4.3,7.1,3.5" fill="none" stroke="#000" stroke-linecap="round" stroke-linejoin="round"/>
  <path d="M10.1,21.4v-3.2c0-1,.5-2,.5-2-3.4-1.1-5.2-3.3-5.2-6.1s.5-2.8,1.2-3.7c-.7-1.9.2-3.8.2-3.8,1.4,0,2.7.5,3.8,1.4,1.5-.7,4.2-.7,5.7,0,1.1-.9,2.4-1.4,3.8-1.4,0,0,.9,1.9.2,3.8.7.9,1.2,1.9,1.2,3.7,0,2.8-1.8,5-5.2,6.1,0,0,.5.9.5,2v3.2" fill="none" stroke="#000" stroke-linecap="round" stroke-linejoin="round"/>
</svg>