<?xml version="1.0" encoding="UTF-8"?>
<svg id="Layer_1" xmlns="http://www.w3.org/2000/svg" width="24" height="24" version="1.1" viewBox="0 0 24 24">
  <!-- Generator: Adobe Illustrator 29.8.2, SVG Export Plug-In . SVG Version: 2.1.1 Build 3)  -->
  <path d="M2.5,12c0-4.5,0-6.7,1.4-8.1,1.4-1.4,3.6-1.4,8.1-1.4s6.7,0,8.1,1.4c1.4,1.4,1.4,3.6,1.4,8.1s0,6.7-1.4,8.1c-1.4,1.4-3.6,1.4-8.1,1.4s-6.7,0-8.1-1.4-1.4-3.6-1.4-8.1Z" fill="none" stroke="#000" stroke-linejoin="round" stroke-width="1"/>
  <path d="M16.5,12c0,2.5-2,4.5-4.5,4.5s-4.5-2-4.5-4.5,2-4.5,4.5-4.5,4.5,2,4.5,4.5Z" fill="none" stroke="#000" stroke-miterlimit="21.3" stroke-width="1"/>
  <path d="M17.5,6.5h0" fill="none" stroke="#000" stroke-linecap="round" stroke-linejoin="round" stroke-width="1"/>
</svg>