<?xml version="1.0" encoding="UTF-8"?>
<svg id="Layer_1" xmlns="http://www.w3.org/2000/svg" width="24" height="24" version="1.1" viewBox="0 0 24 24">
  <!-- Generator: Adobe Illustrator 29.8.2, SVG Export Plug-In . SVG Version: 2.1.1 Build 3)  -->
  <path d="M22,6v12c0,1.1-.9,2-2,2H4c-1.1,0-2-.9-2-2V6c0-1.1.9-2,2-2h16c1.1,0,2,.9,2,2Z" fill="none" stroke="#000" stroke-linejoin="round" stroke-width="1"/>
  <path d="M13,12c0,1.7-1.2,3.1-2.9,3.1s-3.1-1.2-3.1-2.9c0,0,0-.2,0-.3,0-1.7,1.5-2.9,3.1-2.9,1.6,0,2.8,1.3,2.9,2.9Z" fill="none" stroke="#000" stroke-linejoin="round" stroke-width="1"/>
  <path d="M12,9.8c1.2-1.1,3.1-1,4.2.2,1.1,1.2,1,3.1-.2,4.2-1.1,1-2.9,1-4,0" fill="none" stroke="#000" stroke-linejoin="round" stroke-width="1"/>
</svg>