<?xml version="1.0" encoding="UTF-8"?>
<svg id="Layer_1" xmlns="http://www.w3.org/2000/svg" width="24" height="24" version="1.1" viewBox="0 0 24 24">
  <!-- Generator: Adobe Illustrator 29.8.2, SVG Export Plug-In . SVG Version: 2.1.1 Build 3)  -->
  <path d="M8,11.8c0-5.5,1.8-10,4-10s4,4.5,4,10-1.8,10-4,10-4-4.5-4-10Z" fill="none" stroke="#000" stroke-miterlimit="21.3" stroke-width="1"/>
  <path d="M10,8.4c4.8-2.7,9.7-3.4,10.8-1.5s-1.9,5.6-6.7,8.3c-4.8,2.7-9.7,3.4-10.8,1.5s1.9-5.6,6.7-8.3h0Z" fill="none" stroke="#000" stroke-miterlimit="21.3" stroke-width="1"/>
  <path d="M14,8.4c4.8,2.7,7.9,6.5,6.7,8.3s-6,1.2-10.8-1.5c-4.8-2.7-7.9-6.5-6.7-8.3,1.1-1.9,5.9-1.2,10.8,1.5Z" fill="none" stroke="#000" stroke-miterlimit="21.3" stroke-width="1"/>
  <path d="M12,11.8h0" fill="none" stroke="#000" stroke-linecap="round" stroke-miterlimit="21.3" stroke-width="1"/>
</svg>