<?xml version="1.0" encoding="UTF-8"?>
<svg id="Layer_1" xmlns="http://www.w3.org/2000/svg" width="48" height="48" version="1.1" viewBox="0 0 48 48">
  <!-- Generator: Adobe Illustrator 29.8.2, SVG Export Plug-In . SVG Version: 2.1.1 Build 3)  -->
  <path d="M40.4,30.4c0,6.6-7.3,11.9-16.4,11.9h0c-9.1,0-16.4-5.3-16.4-11.9.2-6.6,7.7-11.7,16.8-11.5,8.8,0,15.9,5.3,16.1,11.5Z" fill="none" stroke="#000" stroke-linecap="round" stroke-linejoin="round" stroke-width="2"/>
  <path d="M30.4,32.8c-1.8,1.5-4,2.2-6.4,2.2s-4.6-.7-6.4-2.2" fill="none" stroke="#000" stroke-linecap="round" stroke-linejoin="round" stroke-width="2"/>
  <path d="M40.4,9.4c0,2-1.6,3.7-3.7,3.7s-3.7-1.6-3.7-3.7,1.6-3.7,3.7-3.7,3.7,1.6,3.7,3.7Z" fill="none" stroke="#000" stroke-linecap="round" stroke-linejoin="round" stroke-width="2"/>
  <path d="M35,20.5c.7-1.3,2-2,3.5-2,2.2,0,3.8,1.6,3.8,3.8s-.9,2.7-2.2,3.5" fill="none" stroke="#000" stroke-linecap="round" stroke-linejoin="round" stroke-width="2"/>
  <path d="M13,20.5c-.7-1.3-2-2-3.5-2-2.2,0-3.8,1.6-3.8,3.8h0c0,1.5.9,2.7,2.2,3.5" fill="none" stroke="#000" stroke-linecap="round" stroke-linejoin="round" stroke-width="2"/>
  <path d="M24,18.5v-5.5c0-2,1.6-3.7,3.7-3.7h5.5" fill="none" stroke="#000" stroke-linecap="round" stroke-linejoin="round" stroke-width="2"/>
  <path d="M18.5,25.8h0" fill="none" stroke="#000" stroke-linecap="round" stroke-linejoin="round" stroke-width="2"/>
  <path d="M29.5,25.8h0" fill="none" stroke="#000" stroke-linecap="round" stroke-linejoin="round" stroke-width="2"/>
</svg>