<?xml version="1.0" encoding="UTF-8"?>
<svg id="Layer_1" xmlns="http://www.w3.org/2000/svg" width="24" height="24" version="1.1" viewBox="0 0 24 24">
  <!-- Generator: Adobe Illustrator 29.8.2, SVG Export Plug-In . SVG Version: 2.1.1 Build 3)  -->
  <path d="M21,15.5c0,3.6-4,6.5-9,6.5h0c-5,0-9-2.9-9-6.5.1-3.6,4.2-6.4,9.2-6.3,4.8,0,8.7,2.9,8.8,6.3Z" fill="none" stroke="#000" stroke-linecap="round" stroke-linejoin="round" stroke-width="1"/>
  <path d="M15.5,16.8c-1,.8-2.2,1.2-3.5,1.2-1.3,0-2.5-.4-3.5-1.2" fill="none" stroke="#000" stroke-linecap="round" stroke-linejoin="round" stroke-width="1"/>
  <path d="M21,4c0,1.1-.9,2-2,2s-2-.9-2-2,.9-2,2-2,2,.9,2,2Z" fill="none" stroke="#000" stroke-linecap="round" stroke-linejoin="round" stroke-width="1"/>
  <path d="M18,10.1c.4-.7,1.1-1.1,1.9-1.1,1.2,0,2.1.9,2.1,2.1s-.5,1.5-1.2,1.9" fill="none" stroke="#000" stroke-linecap="round" stroke-linejoin="round" stroke-width="1"/>
  <path d="M6,10.1c-.4-.7-1.1-1.1-1.9-1.1-1.2,0-2.1.9-2.1,2.1h0c0,.8.5,1.5,1.2,1.9" fill="none" stroke="#000" stroke-linecap="round" stroke-linejoin="round" stroke-width="1"/>
  <path d="M12,9v-3c0-1.1.9-2,2-2h3" fill="none" stroke="#000" stroke-linecap="round" stroke-linejoin="round" stroke-width="1"/>
  <path d="M9,13h0" fill="none" stroke="#000" stroke-linecap="round" stroke-linejoin="round" stroke-width="1"/>
  <path d="M15,13h0" fill="none" stroke="#000" stroke-linecap="round" stroke-linejoin="round" stroke-width="1"/>
</svg>