<?xml version="1.0" encoding="UTF-8"?>
<svg id="Layer_1" xmlns="http://www.w3.org/2000/svg" width="24" height="24" version="1.1" viewBox="0 0 24 24">
  <!-- Generator: Adobe Illustrator 29.8.2, SVG Export Plug-In . SVG Version: 2.1.1 Build 3)  -->
  <rect x="2.1" y="4.4" width="19.8" height="15.9" rx="2" ry="2" fill="none" stroke="#000" stroke-miterlimit="10"/>
  <path d="M15,10.4" fill="none" stroke="#000" stroke-miterlimit="10"/>
  <path d="M17.7,14.1v-.6h-1.9l-.2.6h-.4l1.4-3.4c0-.1.2-.1.2-.1h.1l-1,2.6h1.7l-.5-2.6h.3l.8,3.5h-.5ZM13.1,14.1c-.3,0-.6,0-.8-.1v-.2c.4.1.6.1.9.1.5,0,.9-.3.9-.7s-.3-.5-.8-.8c-.4-.2-.7-.4-.7-.8,0-.7.6-1.1,1.5-1.1s.5,0,.6.1v.3c-.3,0-.5,0-.7,0h-.2c-.6,0-.8.4-.8.6,0,.3.3.5.6.7.5.3.9.5.9.9,0,.7-.5,1.1-1.4,1.1ZM10.3,14l.8-3.5h.5l-.8,3.5h-.5ZM8.1,14l1.4-3.5h.4l-1.5,3.5h-.4ZM7.8,14l-.8-3.1c0-.2,0-.3-.2-.4h.4c0,0,.2,0,.2.1l.7,3.4h-.3Z" fill="none" stroke="#000" stroke-miterlimit="10"/>
</svg>