<?xml version="1.0" encoding="UTF-8"?>
<svg id="Layer_1" xmlns="http://www.w3.org/2000/svg" width="48" height="48" version="1.1" viewBox="0 0 48 48">
  <!-- Generator: Adobe Illustrator 29.8.2, SVG Export Plug-In . SVG Version: 2.1.1 Build 3)  -->
  <path d="M29.8,34.4c3.8-.5,7.6-1.4,11.2-2.7-3-3.4-4.7-7.8-4.7-12.3v-1.5c0-6.8-5.5-12.3-12.3-12.3s-12.3,5.5-12.3,12.3v1.5c0,4.6-1.7,8.9-4.7,12.3,3.5,1.3,7.3,2.2,11.2,2.7M29.8,34.4c-3.9.5-7.8.5-11.7,0M29.8,34.4c1,3.2-.7,6.7-4,7.7-3.2,1-6.7-.7-7.7-4-.4-1.2-.4-2.5,0-3.7M20.9,16.3h6.1l-6.1,9.2h6.1" fill="none" stroke="#000" stroke-linecap="round" stroke-linejoin="round" stroke-width="1.5"/>
</svg>