<?xml version="1.0" encoding="UTF-8"?>
<svg id="Layer_1" xmlns="http://www.w3.org/2000/svg" width="48" height="48" version="1.1" viewBox="0 0 48 48">
  <!-- Generator: Adobe Illustrator 29.8.2, SVG Export Plug-In . SVG Version: 2.1.1 Build 3)  -->
  <path d="M24,10.7v-4.7M24,10.7c5.8.2,10.3,5,10.3,10.7v3.6c0,4.8,3.7,6,3.7,8.4s0,2.6-1.1,2.6H11.1c-1.1,0-1.1-1.4-1.1-2.6,0-2.4,3.7-3.6,3.7-8.4v-3.6c0-5.8,4.5-10.5,10.3-10.7ZM17.5,36c.2,1.7.6,3.1,1.9,4.2,2.6,2.4,6.6,2.4,9.3,0,1.3-1.1,2.5-2.5,2.7-4.2h-13.8Z" fill="none" stroke="#000" stroke-linecap="round" stroke-linejoin="round" stroke-width="2"/>
</svg>