<?xml version="1.0" encoding="UTF-8"?>
<svg id="Layer_1" xmlns="http://www.w3.org/2000/svg" width="48" height="48" version="1.1" viewBox="0 0 48 48">
  <!-- Generator: Adobe Illustrator 29.8.2, SVG Export Plug-In . SVG Version: 2.1.1 Build 3)  -->
  <path d="M24,11v-4.6M24,11c5.6.2,10.1,4.9,10,10.5v3.5c0,4.7,3.6,5.8,3.6,8.2s0,2.3-1.1,2.3H11.4c-1.1,0-1.1-1.2-1.1-2.3,0-2.3,3.6-3.5,3.6-8.2v-3.5c0-5.6,4.4-10.3,10-10.5ZM8.1,21.5c0-4.1,1.6-8.1,4.4-11.2M39.9,21.5c0-4.1-1.6-8.1-4.4-11.2M17.2,35.5c.4,3.7,3.8,6.4,7.5,6,3.2-.3,5.7-2.9,6-6h-13.5Z" fill="none" stroke="#000" stroke-linecap="round" stroke-linejoin="round" stroke-width="2"/>
</svg>