<?xml version="1.0" encoding="UTF-8"?>
<svg id="Layer_1" xmlns="http://www.w3.org/2000/svg" width="48" height="48" version="1.1" viewBox="0 0 48 48">
  <!-- Generator: Adobe Illustrator 29.8.2, SVG Export Plug-In . SVG Version: 2.1.1 Build 3)  -->
  <path d="M29.8,34.3c3.8-.4,7.5-1.3,11.1-2.7-3-3.3-4.7-7.7-4.7-12.2v-1.5c0-6.7-5.4-12.2-12.2-12.2s-12.2,5.4-12.2,12.2v1.5c0,4.5-1.7,8.9-4.7,12.2,3.5,1.3,7.2,2.2,11.1,2.7M29.8,34.3c-3.8.5-7.7.5-11.6,0M29.8,34.3c1,3.2-.7,6.6-3.9,7.6-3.2,1-6.6-.7-7.6-3.9-.4-1.2-.4-2.5,0-3.7M6,14.9c.6-3.4,2.1-6.6,4.4-9.1M37.6,5.7c2.3,2.6,3.8,5.7,4.4,9.1" fill="none" stroke="#000" stroke-linecap="round" stroke-linejoin="round" stroke-width="1.5"/>
</svg>