<?xml version="1.0" encoding="UTF-8"?>
<svg id="Layer_1" xmlns="http://www.w3.org/2000/svg" width="48" height="48" version="1.1" viewBox="0 0 48 48">
  <!-- Generator: Adobe Illustrator 29.8.2, SVG Export Plug-In . SVG Version: 2.1.1 Build 3)  -->
  <path d="M21.8,10.7l-.9-4.7M21.8,10.7c5.8-.9,11.2,3,12.2,8.8l.7,3.6c.9,4.7,4.8,5.2,5.3,7.6.2,1.2.4,2.4-.6,2.6l-25.7,4.8c-1.1.2-1.3-1-1.5-2.2-.4-2.4,3-4.3,2.2-9-.4-2.4.4,2.4-.7-3.6-1.1-5.7,2.5-11.3,8.2-12.6h0ZM7.5,19.6c.3-3.8,1.7-7,4.2-9.8M17.1,37.4c1.3,3.7,5.3,5.6,9,4.3,2.6-.9,4.4-3.2,4.7-5.9l.2-1-13.8,2.6Z" fill="none" stroke="#000" stroke-linecap="round" stroke-linejoin="round" stroke-width="2"/>
</svg>