<?xml version="1.0" encoding="UTF-8"?>
<svg id="Layer_1" xmlns="http://www.w3.org/2000/svg" width="48" height="48" version="1.1" viewBox="0 0 48 48">
  <!-- Generator: Adobe Illustrator 29.8.2, SVG Export Plug-In . SVG Version: 2.1.1 Build 3)  -->
  <path d="M24,24v9M24,33c-2.5,0-4.5,2-4.5,4.5s2,4.5,4.5,4.5,4.5-2,4.5-4.5-2-4.5-4.5-4.5ZM15,15c2.5,0,4.5-2,4.5-4.5s-2-4.5-4.5-4.5-4.5,2-4.5,4.5,2,4.5,4.5,4.5ZM15,15v4.5c0,2.5,2,4.5,4.5,4.5h9c2.5,0,4.5-2,4.5-4.5v-4.5M33,15c2.5,0,4.5-2,4.5-4.5s-2-4.5-4.5-4.5-4.5,2-4.5,4.5,2,4.5,4.5,4.5Z" fill="none" stroke="#000" stroke-linecap="round" stroke-linejoin="round" stroke-width="2"/>
</svg>