<?xml version="1.0" encoding="UTF-8"?>
<svg id="Layer_1" xmlns="http://www.w3.org/2000/svg" width="48" height="48" version="1.1" viewBox="0 0 48 48">
  <!-- Generator: Adobe Illustrator 29.8.2, SVG Export Plug-In . SVG Version: 2.1.1 Build 3)  -->
  <path d="M16.5,5.9v3M8.9,16.5h-3M42.1,16.5h-3M8.9,24h-3M42.1,24h-3M8.9,31.5h-3M42.1,31.5h-3M16.5,39.1v3M24,5.9v3M24,39.1v3M31.5,5.9v3M31.5,39.1v3M13.4,39.1h21.1c2.5,0,4.5-2,4.5-4.5V13.4c0-2.5-2-4.5-4.5-4.5H13.4c-2.5,0-4.5,2-4.5,4.5v21.1c0,2.5,2,4.5,4.5,4.5ZM14.9,14.9h18.1v18.1H14.9V14.9Z" fill="none" stroke="#000" stroke-linecap="round" stroke-linejoin="round" stroke-width="1.5"/>
</svg>