<?xml version="1.0" encoding="UTF-8"?>
<svg id="Layer_1" xmlns="http://www.w3.org/2000/svg" width="24" height="24" version="1.1" viewBox="0 0 24 24">
  <!-- Generator: Adobe Illustrator 29.8.2, SVG Export Plug-In . SVG Version: 2.1.1 Build 3)  -->
  <path d="M4.5,12h15M12,5.2h0s0,0,0,0h0ZM12.4,5.2c0,.2-.2.4-.4.4s-.4-.2-.4-.4.2-.4.4-.4.4.2.4.4ZM12,18.8h0s0,0,0,0h0ZM12.4,18.8c0,.2-.2.4-.4.4s-.4-.2-.4-.4.2-.4.4-.4.4.2.4.4Z" fill="none" stroke="#000" stroke-linecap="round" stroke-miterlimit="10"/>
</svg>