<?xml version="1.0" encoding="UTF-8"?>
<svg id="Layer_1" xmlns="http://www.w3.org/2000/svg" width="48" height="48" version="1.1" viewBox="0 0 48 48">
  <!-- Generator: Adobe Illustrator 29.8.2, SVG Export Plug-In . SVG Version: 2.1.1 Build 3)  -->
  <path d="M32.1,32.1h5.5c1.6,0,3.2-1,3.8-2.6,3-9.5-2.4-19.8-11.9-22.8-9.5-3-19.8,2.4-22.8,11.9-.8,2.4-1,4.9-.8,7.3.8,6.3,4.6,11.9,10.5,14.6,2.4,1.2,5.1,1.8,7.7,1.8s4-1.8,4-4h0v-1.8c0-2.2,1.6-4.2,3.8-4.2h.2ZM14.5,26.2c0,.8-.6,1.4-1.4,1.4s-1.4-.6-1.4-1.4.6-1.4,1.4-1.4,1.4.6,1.4,1.4ZM17.1,17.3c0,.8-.6,1.4-1.4,1.4s-1.4-.6-1.4-1.4.6-1.4,1.4-1.4,1.4.6,1.4,1.4ZM24.8,12.5c0,.8-.6,1.4-1.4,1.4s-1.4-.6-1.4-1.4.6-1.4,1.4-1.4,1.4.6,1.4,1.4ZM32.7,14.5c0,.8-.6,1.4-1.4,1.4s-1.4-.6-1.4-1.4.6-1.4,1.4-1.4,1.4.6,1.4,1.4Z" fill="none" stroke="#000" stroke-miterlimit="10"/>
</svg>