<?xml version="1.0" encoding="UTF-8"?>
<svg id="Layer_1" xmlns="http://www.w3.org/2000/svg" width="24" height="24" version="1.1" viewBox="0 0 24 24">
  <!-- Generator: Adobe Illustrator 29.8.2, SVG Export Plug-In . SVG Version: 2.1.1 Build 3)  -->
  <path d="M16,16h2.7c.8,0,1.6-.5,1.9-1.3,1.5-4.7-1.2-9.8-5.9-11.3-4.7-1.5-9.8,1.2-11.3,5.9-.4,1.2-.5,2.4-.4,3.6.4,3.1,2.3,5.9,5.2,7.2,1.2.6,2.5.9,3.8.9,1.1,0,2-.9,2-2,0,0,0,0,0,0v-.9c0-1.1.8-2.1,1.9-2.1,0,0,0,0,0,0ZM7.3,13.1c0,.4-.3.7-.7.7s-.7-.3-.7-.7.3-.7.7-.7.7.3.7.7ZM8.6,8.7c0,.4-.3.7-.7.7s-.7-.3-.7-.7.3-.7.7-.7.7.3.7.7ZM12.4,6.3c0,.4-.3.7-.7.7s-.7-.3-.7-.7.3-.7.7-.7.7.3.7.7ZM16.3,7.3c0,.4-.3.7-.7.7s-.7-.3-.7-.7.3-.7.7-.7.7.3.7.7Z" fill="none" stroke="#000" stroke-miterlimit="10"/>
</svg>