<?xml version="1.0" encoding="UTF-8"?>
<svg id="Layer_1" xmlns="http://www.w3.org/2000/svg" width="48" height="48" version="1.1" viewBox="0 0 48 48">
  <!-- Generator: Adobe Illustrator 29.8.2, SVG Export Plug-In . SVG Version: 2.1.1 Build 3)  -->
  <path d="M5.9,5.9h13.6v13.6H5.9V5.9ZM28.5,28.5h13.6v13.6h-13.6v-13.6ZM28.5,5.9h13.6v13.6h-13.6V5.9ZM19.5,28.5h0s0,0,0,0h0ZM19.5,37.6h0s0,0,0,0h0ZM12.7,42.1h0s0,0,0,0h0ZM12.7,33h0s0,0,0,0h0ZM5.9,37.6h0s0,0,0,0h0ZM5.9,28.5h0s0,0,0,0h0Z" fill="none" stroke="#000" stroke-linejoin="round" stroke-width="2"/>
  <path d="M12.7,12.7h0s0,0,0,0h0ZM35.3,35.3h0s0,0,0,0h0Z" fill="none" stroke="#000" stroke-linejoin="round" stroke-width="2"/>
</svg>