<?xml version="1.0" encoding="UTF-8"?>
<svg id="Layer_1" xmlns="http://www.w3.org/2000/svg" width="48" height="48" version="1.1" viewBox="0 0 48 48">
  <!-- Generator: Adobe Illustrator 29.8.2, SVG Export Plug-In . SVG Version: 2.1.1 Build 3)  -->
  <path d="M19.9,31.4l-1.5,5.4-1.5-5.4c-.8-2.8-3-5-5.8-5.8l-5.4-1.5,5.4-1.5c2.8-.8,5-3,5.8-5.8l1.5-5.4,1.5,5.4c.8,2.8,3,5,5.8,5.8l5.4,1.5-5.4,1.5c-2.8.8-5,3-5.8,5.8h0ZM35.8,17.8l-.5,2-.5-2c-.6-2.3-2.4-4.1-4.6-4.6l-2-.5,2-.5c2.3-.6,4.1-2.4,4.6-4.6l.5-2,.5,2c.6,2.3,2.4,4.1,4.6,4.6l2,.5-2,.5c-2.3.6-4.1,2.4-4.6,4.6ZM33.2,40.2l-.7,2.2-.7-2.2c-.4-1.3-1.4-2.3-2.7-2.7l-2.2-.7,2.2-.7c1.3-.4,2.3-1.4,2.7-2.7l.7-2.2.7,2.2c.4,1.3,1.4,2.3,2.7,2.7l2.2.7-2.2.7c-1.3.4-2.3,1.4-2.7,2.7Z" fill="none" stroke="#000" stroke-linecap="round" stroke-linejoin="round" stroke-width="1.5"/>
</svg>