<?xml version="1.0" encoding="UTF-8"?>
<svg id="Layer_1" xmlns="http://www.w3.org/2000/svg" width="24" height="24" version="1.1" viewBox="0 0 24 24">
  <!-- Generator: Adobe Illustrator 29.8.2, SVG Export Plug-In . SVG Version: 2.1.1 Build 3)  -->
  <path d="M10.1,10.1h-3.8" fill="none" stroke="#000" stroke-linecap="round" stroke-linejoin="round" stroke-width="2"/>
  <path d="M13.9,17.7V6.3c0-1-.8-1.9-1.9-1.9h-7.6c-1,0-1.9.8-1.9,1.9v10.4c0,.5.4.9.9.9h1.9" fill="none" stroke="#000" stroke-linecap="round" stroke-linejoin="round" stroke-width="2"/>
  <path d="M18.6,17.7h1.9c.5,0,.9-.4.9-.9v-3.1c0-.4-.3-.8-.6-.9l-1.8-.6c-.2,0-.4-.3-.5-.5l-1.5-2.9c-.2-.3-.5-.5-.8-.5h-2.3" fill="none" stroke="#000" stroke-linecap="round" stroke-linejoin="round" stroke-width="2"/>
  <path d="M8.2,8.2v3.8" fill="none" stroke="#000" stroke-linecap="round" stroke-linejoin="round" stroke-width="2"/>
  <path d="M9.2,17.7h5.7" fill="none" stroke="#000" stroke-linecap="round" stroke-linejoin="round" stroke-width="2"/>
  <circle cx="16.7" cy="17.7" r="1.9" fill="none" stroke="#000" stroke-linecap="round" stroke-linejoin="round" stroke-width="2"/>
  <circle cx="7.3" cy="17.7" r="1.9" fill="none" stroke="#000" stroke-linecap="round" stroke-linejoin="round" stroke-width="2"/>
</svg>