<?xml version="1.0" encoding="UTF-8"?>
<svg id="Layer_1" xmlns="http://www.w3.org/2000/svg" width="24" height="24" version="1.1" viewBox="0 0 24 24">
  <!-- Generator: Adobe Illustrator 29.8.2, SVG Export Plug-In . SVG Version: 2.1.1 Build 3)  -->
  <circle cx="16.7" cy="17.7" r="1.9"/>
  <path d="M7.3,19.6c-1,0-1.9-.8-1.9-1.9s.8-1.9,1.9-1.9,1.9.8,1.9,1.9-.8,1.9-1.9,1.9Z"/>
  <path d="M21.1,11.8l-1.8-.6-1.5-2.9c-.3-.7-1-1.1-1.7-1.1h-1.8v-.9c0-1.3-1.1-2.4-2.4-2.4h-7.6c-1.3,0-2.4,1.1-2.4,2.4v10.4c0,.8.6,1.4,1.4,1.4h.9c0-.2,0-.3,0-.5,0-1.6,1.3-2.9,2.9-2.9s2.9,1.3,2.9,2.9,0,.3,0,.5h2.2c.2.3.5.5.8.5h.9c-.1-.3-.2-.6-.2-1,0-1.6,1.3-2.9,2.9-2.9s2.9,1.3,2.9,2.9,0,.7-.2,1h1.1c1.1,0,1.9-.9,1.9-1.9v-3.1c0-.8-.5-1.6-1.3-1.8ZM10.1,11.1h-.9v.9c0,.6-.4,1-1,1s-1-.4-1-1v-.9h-.9c-.6,0-1-.4-1-1s.4-1,1-1h.9v-.9c0-.6.4-1,1-1s1,.4,1,1v.9h.9c.6,0,1,.4,1,1s-.4,1-1,1Z"/>
</svg>